<svg width="22" height="19" viewBox="0 0 22 19" fill="none" xmlns="http://www.w3.org/2000/svg">
<path d="M20.4565 5.47344C20.2899 5.40795 20.1124 5.37455 19.9334 5.375H19.9146C18.9691 5.38906 17.9088 6.27453 17.3524 7.61375C16.6854 9.21594 16.9924 10.8552 18.0434 11.2766C18.2098 11.3421 18.3871 11.3755 18.566 11.375C19.5162 11.375 20.591 10.4844 21.1521 9.13625C21.8144 7.53406 21.5027 5.89484 20.4565 5.47344ZM14.3562 11.7256C13.053 9.56328 12.4905 8.75 10.9999 8.75C9.50929 8.75 8.9421 9.56844 7.63898 11.7256C6.52335 13.5706 4.26866 13.7244 3.70616 15.2914C3.59204 15.5784 3.53473 15.8849 3.53741 16.1937C3.53741 17.4683 4.51241 18.5 5.71241 18.5C7.20304 18.5 9.23273 17.3098 11.0046 17.3098C12.7765 17.3098 14.7968 18.5 16.2874 18.5C17.4874 18.5 18.4577 17.4687 18.4577 16.1937C18.4588 15.8846 18.3999 15.5781 18.2843 15.2914C17.7218 13.7187 15.4718 13.5706 14.3562 11.7256ZM8.02382 6.6875C8.08659 6.68756 8.14927 6.68286 8.21132 6.67344C9.29929 6.51547 9.97851 5.00797 9.73195 3.30547C9.49991 1.70047 8.52585 0.5 7.50726 0.5C7.44449 0.499944 7.38181 0.504645 7.31976 0.514063C6.23179 0.672032 5.55257 2.17953 5.79913 3.88203C6.03116 5.48234 7.00523 6.6875 8.02382 6.6875ZM16.1993 3.88203C16.4459 2.17953 15.7666 0.672032 14.6787 0.514063C14.6166 0.504645 14.5539 0.499944 14.4912 0.5C13.4726 0.5 12.5004 1.70047 12.2679 3.30547C12.0213 5.00797 12.7005 6.51547 13.7885 6.67344C13.8506 6.68286 13.9132 6.68756 13.976 6.6875C14.9946 6.6875 15.9687 5.48234 16.1993 3.88203ZM3.95788 11.2766C5.00741 10.8547 5.31398 9.21406 4.64788 7.61375C4.08726 6.26563 3.01335 5.375 2.0646 5.375C1.88573 5.3745 1.70838 5.4079 1.54195 5.47344C0.492414 5.89531 0.185852 7.53594 0.851946 9.13625C1.41257 10.4844 2.48648 11.375 3.43523 11.375C3.6141 11.3755 3.79145 11.3421 3.95788 11.2766Z" stroke="#8C8C8C" stroke-miterlimit="10"/>
</svg>
