<svg width="22" height="20" viewBox="0 0 22 20" fill="none" xmlns="http://www.w3.org/2000/svg">
<path d="M20.4565 5.97344C20.2899 5.90795 20.1124 5.87455 19.9334 5.875H19.9146C18.9691 5.88906 17.9088 6.77453 17.3524 8.11375C16.6854 9.71594 16.9924 11.3552 18.0434 11.7766C18.2098 11.8421 18.3871 11.8755 18.566 11.875C19.5162 11.875 20.591 10.9844 21.1521 9.63625C21.8144 8.03406 21.5027 6.39484 20.4565 5.97344ZM14.3562 12.2256C13.053 10.0633 12.4905 9.25 10.9999 9.25C9.50929 9.25 8.9421 10.0684 7.63898 12.2256C6.52335 14.0706 4.26866 14.2244 3.70616 15.7914C3.59204 16.0784 3.53473 16.3849 3.53741 16.6937C3.53741 17.9683 4.51241 19 5.71241 19C7.20304 19 9.23273 17.8098 11.0046 17.8098C12.7765 17.8098 14.7968 19 16.2874 19C17.4874 19 18.4577 17.9687 18.4577 16.6937C18.4588 16.3846 18.3999 16.0781 18.2843 15.7914C17.7218 14.2187 15.4718 14.0706 14.3562 12.2256ZM8.02382 7.1875C8.08659 7.18756 8.14927 7.18286 8.21132 7.17344C9.29929 7.01547 9.97851 5.50797 9.73195 3.80547C9.49991 2.20047 8.52585 1 7.50726 1C7.44449 0.999944 7.38181 1.00465 7.31976 1.01406C6.23179 1.17203 5.55257 2.67953 5.79913 4.38203C6.03116 5.98234 7.00523 7.1875 8.02382 7.1875ZM16.1993 4.38203C16.4459 2.67953 15.7666 1.17203 14.6787 1.01406C14.6166 1.00465 14.5539 0.999944 14.4912 1C13.4726 1 12.5004 2.20047 12.2679 3.80547C12.0213 5.50797 12.7005 7.01547 13.7885 7.17344C13.8506 7.18286 13.9132 7.18756 13.976 7.1875C14.9946 7.1875 15.9687 5.98234 16.1993 4.38203ZM3.95788 11.7766C5.00741 11.3547 5.31398 9.71406 4.64788 8.11375C4.08726 6.76563 3.01335 5.875 2.0646 5.875C1.88573 5.8745 1.70838 5.9079 1.54195 5.97344C0.492414 6.39531 0.185852 8.03594 0.851946 9.63625C1.41257 10.9844 2.48648 11.875 3.43523 11.875C3.6141 11.8755 3.79145 11.8421 3.95788 11.7766Z" fill="#111111" stroke="#111111" stroke-miterlimit="10"/>
</svg>
