<svg width="12" height="12" viewBox="0 0 12 12" fill="none" xmlns="http://www.w3.org/2000/svg">
<path d="M7.09091 0V1.25H9.75203L7.20022 3.833L6.79594 4.24316C6.51254 4.03121 6.20385 3.85537 5.877 3.71972C5.36109 3.5064 4.80827 3.39657 4.25 3.3965C3.69266 3.3965 3.13897 3.5065 2.62406 3.71975C2.10849 3.93334 1.63996 4.24623 1.24513 4.64062C0.850716 5.03544 0.537799 5.50397 0.324188 6.01953C0.110906 6.53453 3.125e-05 7.08916 0 7.64653C5.97839e-05 8.20447 0.109896 8.75694 0.32325 9.27247C0.537137 9.78812 0.850376 10.2567 1.24513 10.6514C1.63994 11.0458 2.10847 11.3587 2.62403 11.5723C3.13897 11.7856 3.69262 11.8965 4.24997 11.8965C4.80737 11.8965 5.36203 11.7856 5.87697 11.5723C6.39252 11.3587 6.86104 11.0458 7.25584 10.6514C7.65025 10.2566 7.96317 9.78803 8.17678 9.27247C8.39011 8.75693 8.49993 8.20446 8.49997 7.64653C8.49989 7.08825 8.39005 6.53544 8.17672 6.01953C8.04594 5.70433 7.87776 5.40598 7.67578 5.13091L8.08884 4.71197L10.6465 2.12212V4.80572H11.8965V0H7.09091ZM4.25006 4.6465C4.64412 4.64698 5.03427 4.72461 5.3985 4.875C5.76038 5.02491 6.09422 5.24844 6.37116 5.52541C6.64813 5.80228 6.87169 6.13619 7.02159 6.49803C7.17199 6.86226 7.24961 7.25241 7.25009 7.64647C7.25009 8.03812 7.17144 8.43209 7.02159 8.79397C6.87172 9.15575 6.64909 9.49059 6.37222 9.76756C6.09522 10.0445 5.76041 10.268 5.39853 10.4179C5.03431 10.5683 4.64415 10.6459 4.25009 10.6464C3.85844 10.6464 3.46447 10.5678 3.10259 10.4179C2.73873 10.2667 2.40798 10.0458 2.129 9.76759C1.85076 9.48858 1.62983 9.1578 1.47869 8.79391C1.32875 8.43203 1.25012 8.03812 1.25012 7.64647C1.25061 7.25241 1.32825 6.86226 1.47866 6.49803L1.48156 6.49116C1.63144 6.13197 1.85375 5.79959 2.129 5.52437C2.40425 5.24922 2.73662 5.02775 3.09588 4.87791L3.10269 4.87497C3.46456 4.72512 3.85841 4.64647 4.25006 4.6465Z" fill="#343FC3"/>
</svg>
