<svg width="328" height="50" viewBox="0 0 328 50" fill="none" xmlns="http://www.w3.org/2000/svg">
<rect width="328" height="50" rx="8" fill="#F29B30"/>
<path d="M140.118 19.9082C140.118 21.877 141.472 23.8105 144.003 24.6016L143.001 26.1309C141.199 25.542 139.89 24.3555 139.169 22.8438C138.448 24.4873 137.104 25.7969 135.214 26.4473L134.212 24.9004C136.761 24.0566 138.132 22 138.15 19.9082V19.4512H134.722V17.8867H143.458V19.4512H140.118V19.9082ZM147.325 16.6914V28.2227H145.357V16.6914H147.325ZM147.765 30.666V32.248H136.814V27.168H138.782V30.666H147.765ZM163.715 29.1016V30.7188H149.196V29.1016H153.045V26.4824H150.918V21.2969H160.059V19.3457H150.883V17.7637H161.993V22.8613H152.87V24.9004H162.362V26.4824H160.041V29.1016H163.715ZM154.944 29.1016H158.125V26.4824H154.944V29.1016ZM177.539 16.6914V28.293H175.57V16.6914H177.539ZM177.978 30.666V32.248H167.027V27.1855H168.996V30.666H177.978ZM170.226 19.1172C170.226 21.332 171.527 23.4238 174.041 24.2676L173.039 25.8145C171.228 25.1816 169.936 23.916 169.242 22.2988C168.521 24.0303 167.212 25.4189 165.339 26.0957L164.32 24.5488C166.904 23.6348 168.205 21.4023 168.205 19.1172V17.5703H170.226V19.1172ZM185.122 20.0664C185.122 21.8066 186.475 23.5293 188.971 24.1973L188.057 25.709C186.221 25.208 184.902 24.1357 184.173 22.7559C183.487 24.3203 182.16 25.5508 180.27 26.1133L179.356 24.6016C181.835 23.8457 183.171 21.9824 183.171 20.0664V19.9785H179.848V18.4316H183.171V16.6035H185.139V18.4316H188.444V19.9785H185.122V20.0664ZM192.716 16.6738V26.2891H190.764V22.6152H187.97V21.0332H190.764V16.6738H192.716ZM187.337 26.6055C190.694 26.6055 192.768 27.6777 192.768 29.5586C192.768 31.457 190.694 32.5469 187.337 32.5469C183.997 32.5469 181.923 31.457 181.94 29.5586C181.923 27.6777 183.997 26.6055 187.337 26.6055ZM187.337 28.0996C185.122 28.1172 183.874 28.6094 183.874 29.5586C183.874 30.5078 185.122 31.0352 187.337 31.0352C189.587 31.0352 190.817 30.5078 190.817 29.5586C190.817 28.6094 189.587 28.1172 187.337 28.0996Z" fill="white"/>
</svg>
