<svg width="18" height="18" viewBox="0 0 18 18" fill="none" xmlns="http://www.w3.org/2000/svg">
<path d="M15.4286 1.28566H14.7857V0.660881C14.7857 0.314942 14.5197 0.0180217 14.1738 0.000744905C14.0869 -0.003443 14 0.01006 13.9185 0.0404358C13.8369 0.0708115 13.7624 0.117428 13.6994 0.177459C13.6364 0.237491 13.5862 0.309688 13.552 0.389677C13.5177 0.469665 13.5 0.555779 13.5 0.642801V1.28566H4.5V0.660881C4.5 0.314942 4.23402 0.0180217 3.88808 0.000744905C3.80116 -0.003443 3.71429 0.01006 3.63275 0.0404358C3.5512 0.0708115 3.47667 0.117428 3.41367 0.177459C3.35067 0.237491 3.30051 0.309688 3.26624 0.389677C3.23197 0.469665 3.21429 0.555779 3.21429 0.642801V1.28566H2.57143C1.88944 1.28566 1.23539 1.55658 0.753154 2.03882C0.270918 2.52105 0 3.17511 0 3.8571V4.33924C0 4.38187 0.0169324 4.42274 0.0470722 4.45288C0.0772119 4.48302 0.11809 4.49996 0.160714 4.49996H17.8393C17.8819 4.49996 17.9228 4.48302 17.9529 4.45288C17.9831 4.42274 18 4.38187 18 4.33924V3.8571C18 3.17511 17.7291 2.52105 17.2468 2.03882C16.7646 1.55658 16.1106 1.28566 15.4286 1.28566ZM17.8393 5.78567H0.160714C0.11809 5.78567 0.0772119 5.80261 0.0470722 5.83275C0.0169324 5.86289 0 5.90377 0 5.94639V15.4286C0 16.1106 0.270918 16.7646 0.753154 17.2468C1.23539 17.7291 1.88944 18 2.57143 18H15.4286C16.1106 18 16.7646 17.7291 17.2468 17.2468C17.7291 16.7646 18 16.1106 18 15.4286V5.94639C18 5.90377 17.9831 5.86289 17.9529 5.83275C17.9228 5.80261 17.8819 5.78567 17.8393 5.78567ZM8.34027 14.8299C7.85129 15.216 7.18513 15.4286 6.46393 15.4286C5.34415 15.4286 4.51607 14.6989 4.14723 14.0745C4.06039 13.9277 4.03543 13.7524 4.07785 13.5871C4.12027 13.4219 4.2266 13.2803 4.37344 13.1934C4.52028 13.1066 4.6956 13.0816 4.86084 13.124C5.02609 13.1665 5.16771 13.2728 5.25455 13.4196C5.29795 13.4936 5.70254 14.1428 6.46393 14.1428C7.1333 14.1428 7.91518 13.8499 7.91518 13.0251C7.91518 12.774 7.86616 12.4244 7.63393 12.1861C7.2908 11.835 6.71987 11.6771 6.42415 11.6771C6.25366 11.6771 6.09014 11.6093 5.96958 11.4888C5.84902 11.3682 5.78129 11.2047 5.78129 11.0342C5.78129 10.8637 5.84902 10.7002 5.96958 10.5796C6.09014 10.4591 6.25366 10.3914 6.42415 10.3914C6.61902 10.3914 7.12366 10.2869 7.43987 9.96346C7.52541 9.87932 7.59293 9.77865 7.63832 9.66758C7.6837 9.5565 7.70599 9.43735 7.70384 9.31738C7.70384 8.38403 6.55353 8.35711 6.42254 8.35711C5.72585 8.35711 5.46629 8.78341 5.45545 8.80149C5.41368 8.87637 5.35736 8.94214 5.28979 8.99493C5.22223 9.04772 5.14478 9.08645 5.06202 9.10886C4.97926 9.13127 4.89285 9.1369 4.80788 9.12541C4.72292 9.11392 4.6411 9.08555 4.56726 9.04197C4.49342 8.99839 4.42905 8.94048 4.37792 8.87165C4.3268 8.80281 4.28996 8.72445 4.26958 8.64116C4.2492 8.55788 4.24568 8.47136 4.25924 8.3867C4.2728 8.30203 4.30316 8.22094 4.34853 8.14818C4.65549 7.62586 5.36183 7.07139 6.42254 7.07139C7.08308 7.07139 7.69862 7.26305 8.15545 7.61059C8.69344 8.02041 8.98955 8.62631 8.98955 9.31738C8.99137 9.60389 8.93641 9.88792 8.82787 10.1531C8.71932 10.4182 8.55934 10.6593 8.35714 10.8623C8.31094 10.9097 8.26232 10.9539 8.2129 10.9969C8.33362 11.084 8.44679 11.1812 8.55121 11.2873C8.97549 11.7213 9.19969 12.3219 9.19969 13.0251C9.20089 13.7507 8.89513 14.3916 8.34027 14.8299ZM13.5 14.625C13.5 14.7955 13.4323 14.959 13.3117 15.0796C13.1912 15.2001 13.0276 15.2678 12.8571 15.2678C12.6866 15.2678 12.5231 15.2001 12.4026 15.0796C12.282 14.959 12.2143 14.7955 12.2143 14.625V9.01162L11.3099 9.67819C11.2419 9.72831 11.1647 9.76456 11.0828 9.78486C11.0008 9.80517 10.9156 9.80913 10.8321 9.79652C10.7486 9.78391 10.6684 9.75497 10.5961 9.71137C10.5238 9.66776 10.4608 9.61034 10.4107 9.54238C10.3605 9.47442 10.3243 9.39726 10.304 9.31529C10.2837 9.23332 10.2797 9.14816 10.2923 9.06466C10.305 8.98116 10.3339 8.90096 10.3775 8.82865C10.4211 8.75633 10.4785 8.69331 10.5465 8.64318L12.291 7.35746C12.4015 7.27606 12.5351 7.23213 12.6723 7.23211H12.8571C13.0276 7.23211 13.1912 7.29984 13.3117 7.4204C13.4323 7.54096 13.5 7.70447 13.5 7.87497V14.625Z" fill="#CACED8"/>
</svg>
