<svg width="39" height="38" viewBox="0 0 39 38" fill="none" xmlns="http://www.w3.org/2000/svg">
<path d="M34.125 3.8H28.275V0.95C28.275 0.698044 28.1723 0.456408 27.9894 0.278249C27.8066 0.100089 27.5586 0 27.3 0C27.0414 0 26.7934 0.100089 26.6106 0.278249C26.4277 0.456408 26.325 0.698044 26.325 0.95V3.8H12.675V0.95C12.675 0.698044 12.5723 0.456408 12.3894 0.278249C12.2066 0.100089 11.9586 0 11.7 0C11.4414 0 11.1934 0.100089 11.0106 0.278249C10.8277 0.456408 10.725 0.698044 10.725 0.95V3.8H4.875C3.58255 3.80151 2.34347 4.30244 1.42956 5.19291C0.51566 6.08338 0.00154816 7.29068 0 8.55V33.25C0.00154816 34.5093 0.51566 35.7166 1.42956 36.6071C2.34347 37.4976 3.58255 37.9985 4.875 38H34.125C35.4179 38 36.6579 37.4996 37.5721 36.6088C38.4864 35.718 39 34.5098 39 33.25V8.55C39 7.29022 38.4864 6.08204 37.5721 5.19124C36.6579 4.30045 35.4179 3.8 34.125 3.8ZM37.05 33.25C37.05 34.0059 36.7418 34.7308 36.1933 35.2653C35.6447 35.7997 34.9008 36.1 34.125 36.1H4.875C4.09924 36.1 3.35526 35.7997 2.80671 35.2653C2.25817 34.7308 1.95 34.0059 1.95 33.25V17.1H37.05V33.25ZM37.05 15.2H1.95V8.55C1.95 6.9768 3.2565 5.7 4.875 5.7H10.725V8.55C10.725 8.80196 10.8277 9.04359 11.0106 9.22175C11.1934 9.39991 11.4414 9.5 11.7 9.5C11.9586 9.5 12.2066 9.39991 12.3894 9.22175C12.5723 9.04359 12.675 8.80196 12.675 8.55V5.7H26.325V8.55C26.325 8.80196 26.4277 9.04359 26.6106 9.22175C26.7934 9.39991 27.0414 9.5 27.3 9.5C27.5586 9.5 27.8066 9.39991 27.9894 9.22175C28.1723 9.04359 28.275 8.80196 28.275 8.55V5.7H34.125C34.9008 5.7 35.6447 6.00027 36.1933 6.53475C36.7418 7.06922 37.05 7.79413 37.05 8.55V15.2Z" fill="#F29B30"/>
</svg>
