<svg width="18" height="16" viewBox="0 0 18 16" fill="none" xmlns="http://www.w3.org/2000/svg">
<path d="M3.57058 13.5833L2.00858 15.1453C1.77697 15.3769 1.50931 15.4301 1.20558 15.3048C0.901861 15.1796 0.75 14.9519 0.75 14.6219V2.23133C0.75 1.80906 0.891472 1.45675 1.17442 1.17442C1.45736 0.892083 1.80967 0.750611 2.23133 0.75H15.7696C16.1913 0.75 16.5436 0.891472 16.8265 1.17442C17.1094 1.45736 17.2506 1.80967 17.25 2.23133V12.1029C17.25 12.5246 17.1088 12.8769 16.8265 13.1598C16.5442 13.4428 16.1919 13.5839 15.7696 13.5833H3.57058ZM3.17917 12.6667H15.7696C15.9101 12.6667 16.0394 12.608 16.1573 12.4907C16.2753 12.3733 16.3339 12.2441 16.3333 12.1029V2.23042C16.3333 2.08986 16.2747 1.96061 16.1573 1.84267C16.04 1.72472 15.9108 1.66606 15.7696 1.66667H2.23042C2.08986 1.66667 1.96061 1.72533 1.84267 1.84267C1.72472 1.96 1.66606 2.08925 1.66667 2.23042V14.1746L3.17917 12.6667ZM4.41667 10.375H9.91667C10.0474 10.375 10.1565 10.3313 10.2439 10.2439C10.3313 10.1565 10.375 10.0474 10.375 9.91667C10.375 9.78589 10.3313 9.6768 10.2439 9.58942C10.1565 9.50203 10.0474 9.45833 9.91667 9.45833H4.41667C4.2865 9.45833 4.17742 9.50203 4.08942 9.58942C4.00142 9.6768 3.95772 9.78589 3.95833 9.91667C3.95894 10.0474 4.00264 10.1565 4.08942 10.2439C4.17619 10.3313 4.28528 10.375 4.41667 10.375ZM4.41667 7.625H13.5833C13.7141 7.625 13.8232 7.58131 13.9106 7.49392C13.998 7.40653 14.0417 7.29744 14.0417 7.16667C14.0417 7.03589 13.998 6.92681 13.9106 6.83942C13.8232 6.75203 13.7141 6.70833 13.5833 6.70833H4.41667C4.2865 6.70833 4.17742 6.75203 4.08942 6.83942C4.00142 6.92681 3.95772 7.03589 3.95833 7.16667C3.95894 7.29744 4.00264 7.40653 4.08942 7.49392C4.17619 7.58131 4.28528 7.625 4.41667 7.625ZM4.41667 4.875H13.5833C13.7141 4.875 13.8232 4.83131 13.9106 4.74392C13.998 4.65653 14.0417 4.54744 14.0417 4.41667C14.0417 4.28589 13.998 4.17681 13.9106 4.08942C13.8232 4.00203 13.7141 3.95833 13.5833 3.95833H4.41667C4.2865 3.95833 4.17742 4.00203 4.08942 4.08942C4.00142 4.17681 3.95772 4.28589 3.95833 4.41667C3.95894 4.54744 4.00264 4.65653 4.08942 4.74392C4.17619 4.83131 4.28528 4.875 4.41667 4.875Z" fill="#8C8C8C"/>
</svg>
