<svg width="17" height="15" viewBox="0 0 17 15" fill="none" xmlns="http://www.w3.org/2000/svg">
<path d="M2.90606 13.1672L1.29672 14.7699C1.05809 15.0075 0.782315 15.0611 0.469389 14.9307C0.156463 14.8003 0 14.5676 0 14.2328V1.51987C0 1.08661 0.145759 0.725137 0.437278 0.435459C0.728796 0.14578 1.09146 0.00062701 1.52528 0H15.4747C15.9092 0 16.2718 0.145153 16.5627 0.435459C16.8536 0.725764 16.9994 1.08724 17 1.51987V11.6483C17 12.0809 16.8542 12.4424 16.5627 12.7327C16.2712 13.023 15.9085 13.1678 15.4747 13.1672H2.90606ZM3.77778 9.87541H9.44444C9.57856 9.87541 9.69063 9.83027 9.78067 9.73998C9.8707 9.64969 9.91604 9.53777 9.91667 9.40421C9.9173 9.27066 9.87196 9.15905 9.78067 9.06939C9.68937 8.97973 9.5773 8.9349 9.44444 8.9349H3.77778C3.64367 8.9349 3.53159 8.98004 3.44156 9.07033C3.35152 9.16062 3.30619 9.27254 3.30556 9.40609C3.30493 9.53965 3.35026 9.65125 3.44156 9.74092C3.53285 9.83058 3.64493 9.87541 3.77778 9.87541ZM3.77778 7.05386H13.2222C13.3563 7.05386 13.4684 7.00872 13.5584 6.91843C13.6485 6.82814 13.6938 6.71622 13.6944 6.58267C13.6951 6.44911 13.6497 6.33751 13.5584 6.24784C13.4671 6.15818 13.3551 6.11335 13.2222 6.11335H3.77778C3.64367 6.11335 3.53159 6.15849 3.44156 6.24878C3.35152 6.33907 3.30619 6.45099 3.30556 6.58455C3.30493 6.7181 3.35026 6.82971 3.44156 6.91937C3.53285 7.00903 3.64493 7.05386 3.77778 7.05386ZM3.77778 4.23232H13.2222C13.3563 4.23232 13.4684 4.18717 13.5584 4.09688C13.6485 4.0066 13.6938 3.89467 13.6944 3.76112C13.6951 3.62757 13.6497 3.51596 13.5584 3.4263C13.4671 3.33663 13.3551 3.2918 13.2222 3.2918H3.77778C3.64367 3.2918 3.53159 3.33695 3.44156 3.42724C3.35152 3.51753 3.30619 3.62945 3.30556 3.763C3.30493 3.89655 3.35026 4.00816 3.44156 4.09782C3.53285 4.18749 3.64493 4.23232 3.77778 4.23232Z" fill="black"/>
</svg>
