<svg width="32" height="32" viewBox="0 0 32 32" fill="none" xmlns="http://www.w3.org/2000/svg">
<path d="M24.7459 3.6132L29.3951 9.34194C29.6479 9.65339 29.7835 10.0419 29.7815 10.4395L29.7728 10.6101C29.7254 11.0659 29.4981 11.4845 29.1422 11.7733L23.3232 16.4958L28.0463 22.3155C28.2989 22.6268 28.4339 23.0149 28.4321 23.4123L28.4226 23.5835C28.3752 24.0393 28.1486 24.4574 27.7928 24.7461L22.0641 29.3954C21.7527 29.648 21.3646 29.7843 20.9671 29.7825L20.7959 29.773C20.3402 29.7256 19.922 29.4989 19.6333 29.1432L14.9102 23.3235L9.09049 28.0465C8.77915 28.2991 8.39114 28.4342 7.99369 28.4323L7.82312 28.4236C7.36727 28.3762 6.94868 28.1489 6.65987 27.793L2.01064 22.0643C1.40986 21.324 1.52261 20.2344 2.26279 19.6335L8.08253 14.9104L3.36007 9.09146C2.75924 8.35113 2.87264 7.26092 3.61298 6.66009L9.34172 2.01086L9.47996 1.90999C9.76459 1.72238 10.0984 1.62277 10.4393 1.62447L10.6091 1.6338C11.0649 1.68122 11.4843 1.90791 11.7731 2.26377L16.4956 8.08275L22.3145 3.36029C22.6259 3.10758 23.0146 2.97203 23.4121 2.97389L23.5833 2.98337C24.039 3.03088 24.4572 3.25744 24.7459 3.6132Z" stroke="#F29B30" stroke-opacity="0.7" stroke-width="3"/>
</svg>
