<svg width="24" height="24" viewBox="0 0 24 24" fill="none" xmlns="http://www.w3.org/2000/svg">
<g clip-path="url(#clip0_315_1599)">
<path d="M12.3558 0.5C3.1845 0.5 -0.739871 11.1088 0.841379 14.76C2.02013 17.4769 4.60763 14.875 5.64263 16.1975C8.34513 19.7338 2.6095 21.6744 5.772 22.925C9.49513 24.4487 23.4964 23.5 23.4964 10.6631C23.4964 6.79625 21.5701 0.5 12.3558 0.5ZM6.922 13.4375C6.49748 13.429 6.08491 13.2954 5.73603 13.0533C5.38716 12.8113 5.11751 12.4716 4.9609 12.077C4.80429 11.6823 4.7677 11.2502 4.8557 10.8348C4.94371 10.4194 5.1524 10.0392 5.4556 9.74196C5.7588 9.4447 6.14302 9.24358 6.56007 9.16382C6.97713 9.08405 7.40845 9.1292 7.79994 9.29359C8.19144 9.45798 8.52569 9.73431 8.76077 10.0879C8.99585 10.4415 9.12129 10.8566 9.12138 11.2812C9.12138 11.8531 8.8942 12.4016 8.48983 12.8059C8.08545 13.2103 7.537 13.4375 6.96513 13.4375H6.91913H6.922ZM9.12138 5.53125C9.12138 5.10478 9.24784 4.68789 9.48477 4.3333C9.7217 3.97871 10.0585 3.70234 10.4525 3.53913C10.8465 3.37593 11.28 3.33323 11.6983 3.41643C12.1166 3.49963 12.5008 3.70499 12.8023 4.00655C13.1039 4.30811 13.3092 4.69231 13.3924 5.11059C13.4756 5.52886 13.4329 5.96241 13.2697 6.35641C13.1065 6.75041 12.8302 7.08717 12.4756 7.32411C12.121 7.56104 11.7041 7.6875 11.2776 7.6875H11.2316C10.6678 7.67547 10.1311 7.44299 9.73658 7.03991C9.3421 6.63683 9.12125 6.09524 9.12138 5.53125ZM12.672 20.625C12.2475 20.6165 11.8349 20.4829 11.486 20.2408C11.1372 19.9988 10.8675 19.6591 10.7109 19.2645C10.5543 18.8698 10.5177 18.4377 10.6057 18.0223C10.6937 17.6069 10.9024 17.2267 11.2056 16.9295C11.5088 16.6322 11.893 16.4311 12.3101 16.3513C12.7271 16.2716 13.1584 16.3167 13.5499 16.4811C13.9414 16.6455 14.2757 16.9218 14.5108 17.2754C14.7458 17.629 14.8713 18.0441 14.8714 18.4688C14.8714 19.0406 14.6442 19.5891 14.2398 19.9934C13.8355 20.3978 13.287 20.625 12.7151 20.625H12.6691H12.672ZM18.422 16.3125C17.9975 16.304 17.5849 16.1704 17.236 15.9283C16.8872 15.6863 16.6175 15.3466 16.4609 14.952C16.3043 14.5573 16.2677 14.1252 16.3557 13.7098C16.4437 13.2944 16.6524 12.9142 16.9556 12.617C17.2588 12.3197 17.643 12.1186 18.0601 12.0388C18.4771 11.9591 18.9084 12.0042 19.2999 12.1686C19.6914 12.333 20.0257 12.6093 20.2608 12.9629C20.4958 13.3165 20.6213 13.7316 20.6214 14.1562C20.6214 14.7281 20.3942 15.2766 19.9898 15.6809C19.5855 16.0853 19.037 16.3125 18.4651 16.3125H18.4191H18.422ZM18.422 9.125C17.9975 9.11651 17.5849 8.98286 17.236 8.74083C16.8872 8.49879 16.6175 8.15914 16.4609 7.76447C16.3043 7.36979 16.2677 6.93766 16.3557 6.52227C16.4437 6.10688 16.6524 5.72672 16.9556 5.42946C17.2588 5.1322 17.643 4.93108 18.0601 4.85132C18.4771 4.77155 18.9084 4.8167 19.2999 4.98109C19.6914 5.14548 20.0257 5.42181 20.2608 5.7754C20.4958 6.129 20.6213 6.54414 20.6214 6.96875C20.6214 7.54062 20.3942 8.08907 19.9898 8.49345C19.5855 8.89782 19.037 9.125 18.4651 9.125H18.4191H18.422Z" fill="#CACED8"/>
</g>
<defs>
<clipPath id="clip0_315_1599">
<rect width="23" height="23" fill="white" transform="translate(0.5 0.5)"/>
</clipPath>
</defs>
</svg>
