<svg width="10" height="16" viewBox="0 0 10 16" fill="none" xmlns="http://www.w3.org/2000/svg">
<path d="M5 0.794922C3.87272 0.795645 2.79174 1.24341 1.99412 2.04002C1.19743 2.83789 0.74997 3.91933 0.75 5.04686C0.75068 6.17358 1.19852 7.25398 1.99516 8.05077C2.38996 8.44517 2.85848 8.75809 3.37403 8.9717L3.38084 8.97458C3.69434 9.1038 4.02209 9.19395 4.35641 9.24511L4.36031 9.83592L4.37012 11.373H2.18656V12.623H4.37794L4.38966 14.5879L4.39353 15.2129L5.64353 15.2051L5.63962 14.5801L5.62788 12.623H7.81341V11.373H5.62009L5.61031 9.82811L5.60644 9.25092C5.95658 9.20063 6.29907 9.10682 6.62597 8.97167C7.14155 8.75806 7.61008 8.44515 8.00491 8.05073C8.39927 7.65627 8.71219 7.18808 8.92584 6.67283C9.13944 6.15734 9.24959 5.60488 9.25003 5.04689C9.25019 4.48939 9.14003 3.93502 8.92678 3.41992C8.71356 2.90486 8.40003 2.4343 8.00584 2.04005C7.61109 1.6456 7.14258 1.3327 6.627 1.11917C6.11117 0.90552 5.55836 0.795369 5.00003 0.794984L5 0.794922ZM5 2.04492C5.39406 2.0454 5.78421 2.12303 6.14844 2.27342C6.51031 2.42336 6.84513 2.64677 7.12206 2.92383C7.39903 3.20086 7.62166 3.53548 7.77144 3.89745C7.92131 4.25933 8.00012 4.65411 8 5.04589C7.99988 5.43745 7.92141 5.83255 7.77147 6.19433C7.62156 6.55605 7.39803 6.89008 7.12109 7.16695C6.84211 7.44521 6.51135 7.66616 6.14747 7.81733C5.78559 7.96717 5.39153 8.04483 4.99997 8.04483C4.60841 8.04489 4.21434 7.96717 3.85247 7.81733C3.48864 7.66608 3.1579 7.44514 2.87887 7.16695C2.60194 6.89008 2.37841 6.55602 2.22847 6.1943C2.07856 5.83252 2.00009 5.43742 1.99997 5.04586C1.99984 4.65408 2.07866 4.2593 2.2285 3.89742C2.37831 3.53542 2.60094 3.2008 2.87787 2.92377C3.15484 2.6467 3.48962 2.4233 3.85153 2.27336C4.21576 2.12296 4.60591 2.04532 4.99997 2.04483L5 2.04492Z" fill="#FF3D3D"/>
</svg>
