<svg width="184" height="143" viewBox="0 0 184 143" fill="none" xmlns="http://www.w3.org/2000/svg">
<path d="M18.8438 136.734H19.8594V137.359H18.8438V139.812H18.1016V134.672H18.8438V136.734ZM19.1406 141.516H14.4062V139.305H15.1484V140.914H19.1406V141.516ZM14.3438 136.289H16.1797V135.172H16.9141V138.656H13.6172V135.172H14.3438V136.289ZM16.1797 138.062V136.875H14.3438V138.062H16.1797ZM25.7656 137.062H26.7656V137.68H25.7656V140.133H25.0234V134.664H25.7656V137.062ZM26.0156 141.516H21.2422V139.766H21.9844V140.914H26.0156V141.516ZM20.2109 138.773C20.9167 138.773 21.526 138.764 22.0391 138.746V138.262C21.6354 138.217 21.3177 138.103 21.0859 137.918C20.8542 137.73 20.7396 137.495 20.7422 137.211C20.7396 136.987 20.806 136.794 20.9414 136.633C21.0794 136.469 21.2734 136.344 21.5234 136.258C21.776 136.172 22.0703 136.13 22.4062 136.133C22.7396 136.13 23.0312 136.172 23.2812 136.258C23.5312 136.344 23.7253 136.469 23.8633 136.633C24.0013 136.794 24.0703 136.987 24.0703 137.211C24.0703 137.495 23.9544 137.729 23.7227 137.914C23.4935 138.099 23.1797 138.215 22.7812 138.262V138.711C23.4896 138.672 24.1042 138.612 24.625 138.531L24.6875 139.055C24.0286 139.18 23.3424 139.262 22.6289 139.301C21.9154 139.34 21.1354 139.362 20.2891 139.367L20.2109 138.773ZM24.4297 135.859H20.3906V135.312H22.0391V134.641H22.7812V135.312H24.4297V135.859ZM22.4062 136.641C22.1042 136.641 21.8685 136.691 21.6992 136.793C21.5299 136.892 21.4453 137.031 21.4453 137.211C21.4453 137.383 21.5299 137.518 21.6992 137.617C21.8711 137.716 22.1068 137.766 22.4062 137.766C22.7031 137.766 22.9362 137.716 23.1055 137.617C23.2747 137.518 23.3594 137.383 23.3594 137.211C23.3594 137.031 23.2747 136.892 23.1055 136.793C22.9362 136.691 22.7031 136.641 22.4062 136.641Z" fill="#8C8C8C"/>
<rect y="55" width="40" height="76" rx="4" fill="#D9D9D9"/>
<path d="M15.5625 121.078C15.1771 121.078 14.8229 120.993 14.5 120.824C14.1797 120.652 13.9167 120.365 13.7109 119.961C13.5078 119.557 13.4062 119.023 13.4062 118.359C13.4062 117.711 13.4948 117.155 13.6719 116.691C13.8516 116.225 14.1068 115.871 14.4375 115.629C14.7708 115.387 15.1641 115.266 15.6172 115.266C15.9557 115.266 16.2604 115.332 16.5312 115.465C16.8047 115.595 17.026 115.777 17.1953 116.012C17.3646 116.246 17.4714 116.513 17.5156 116.812H16.6641C16.6068 116.573 16.487 116.38 16.3047 116.234C16.1224 116.089 15.8932 116.016 15.6172 116.016C15.3281 116.016 15.0794 116.098 14.8711 116.262C14.6654 116.423 14.5078 116.658 14.3984 116.965C14.2891 117.27 14.2344 117.633 14.2344 118.055H14.2969C14.4505 117.815 14.6536 117.628 14.9062 117.492C15.1615 117.357 15.4427 117.289 15.75 117.289C16.0833 117.289 16.3893 117.37 16.668 117.531C16.9466 117.69 17.1667 117.911 17.3281 118.195C17.4896 118.477 17.5703 118.794 17.5703 119.148C17.5703 119.51 17.487 119.839 17.3203 120.133C17.1536 120.424 16.918 120.655 16.6133 120.824C16.3086 120.993 15.9583 121.078 15.5625 121.078ZM15.5391 120.359C15.763 120.359 15.9661 120.306 16.1484 120.199C16.3307 120.092 16.474 119.948 16.5781 119.766C16.6823 119.583 16.7344 119.383 16.7344 119.164C16.7344 118.951 16.6836 118.754 16.582 118.574C16.4805 118.395 16.3398 118.253 16.1602 118.148C15.9831 118.044 15.7839 117.992 15.5625 117.992C15.3359 117.992 15.1289 118.047 14.9414 118.156C14.7565 118.263 14.6094 118.408 14.5 118.59C14.3932 118.77 14.3385 118.964 14.3359 119.172C14.3385 119.38 14.3919 119.576 14.4961 119.758C14.6003 119.94 14.7435 120.086 14.9258 120.195C15.1107 120.305 15.3151 120.359 15.5391 120.359ZM20.2531 121.078C19.8182 121.078 19.4445 120.965 19.132 120.738C18.8221 120.512 18.5852 120.181 18.4211 119.746C18.257 119.309 18.175 118.784 18.175 118.172C18.175 117.565 18.257 117.044 18.4211 116.609C18.5878 116.172 18.8273 115.839 19.1398 115.609C19.4523 115.38 19.8234 115.266 20.2531 115.266C20.6828 115.266 21.0539 115.38 21.3664 115.609C21.6789 115.839 21.9172 116.172 22.0813 116.609C22.2479 117.044 22.3313 117.565 22.3313 118.172C22.3313 118.784 22.2492 119.307 22.0852 119.742C21.9211 120.177 21.6828 120.509 21.3703 120.738C21.0578 120.965 20.6854 121.078 20.2531 121.078ZM20.2531 120.336C20.5083 120.336 20.7271 120.254 20.9094 120.09C21.0917 119.923 21.231 119.678 21.3273 119.355C21.4237 119.033 21.4719 118.638 21.4719 118.172C21.4719 117.708 21.4224 117.314 21.3234 116.988C21.2271 116.66 21.0878 116.413 20.9055 116.246C20.7232 116.077 20.5057 115.992 20.2531 115.992C20.0005 115.992 19.7831 116.077 19.6008 116.246C19.4185 116.413 19.2779 116.66 19.1789 116.988C19.0826 117.314 19.0344 117.708 19.0344 118.172C19.0344 118.638 19.0826 119.033 19.1789 119.355C19.2753 119.678 19.4146 119.923 19.5969 120.09C19.7792 120.254 19.9979 120.336 20.2531 120.336ZM22.8969 119.203L25.3969 115.344H26.4594V119.172H27.2328V119.898H26.4594V121H25.6469V119.898H22.8969V119.203ZM25.6469 119.172V116.367H25.5844L23.8031 119.125V119.172H25.6469Z" fill="#111111"/>
<path d="M67.0625 138.422H66.3203V134.664H67.0625V138.422ZM63.2109 139.547H66.3281V138.758H67.0625V141.578H62.4844V138.758H63.2109V139.547ZM66.3281 140.969V140.133H63.2109V140.969H66.3281ZM63.2656 134.984C63.6198 134.984 63.9375 135.053 64.2188 135.191C64.5026 135.329 64.724 135.522 64.8828 135.77C65.0443 136.014 65.125 136.294 65.125 136.609C65.125 136.924 65.0443 137.206 64.8828 137.453C64.724 137.698 64.5026 137.889 64.2188 138.027C63.9375 138.163 63.6198 138.229 63.2656 138.227C62.9115 138.229 62.5924 138.163 62.3086 138.027C62.0247 137.889 61.8021 137.698 61.6406 137.453C61.4792 137.206 61.3984 136.924 61.3984 136.609C61.3984 136.294 61.4792 136.014 61.6406 135.77C61.8021 135.522 62.0247 135.329 62.3086 135.191C62.5924 135.053 62.9115 134.984 63.2656 134.984ZM63.2656 135.609C63.0469 135.607 62.8503 135.648 62.6758 135.734C62.5039 135.818 62.3685 135.936 62.2695 136.09C62.1732 136.241 62.125 136.414 62.125 136.609C62.125 136.807 62.1732 136.983 62.2695 137.137C62.3685 137.288 62.5039 137.406 62.6758 137.492C62.8503 137.576 63.0469 137.617 63.2656 137.617C63.4818 137.617 63.6758 137.576 63.8477 137.492C64.0195 137.406 64.1536 137.288 64.25 137.137C64.349 136.983 64.3984 136.807 64.3984 136.609C64.3984 136.414 64.349 136.241 64.25 136.09C64.1536 135.936 64.0195 135.818 63.8477 135.734C63.6758 135.648 63.4818 135.607 63.2656 135.609ZM74.6641 136.266H73.6719V137.156H74.6641V137.773H73.6719V138.797H72.9297V134.664H73.6719V135.656H74.6641V136.266ZM70.1406 135.07C70.4948 135.07 70.8125 135.141 71.0938 135.281C71.3776 135.422 71.6003 135.618 71.7617 135.871C71.9232 136.124 72.0052 136.411 72.0078 136.734C72.0052 137.055 71.9232 137.341 71.7617 137.594C71.6003 137.844 71.3776 138.04 71.0938 138.184C70.8125 138.324 70.4948 138.396 70.1406 138.398C69.7865 138.396 69.4674 138.324 69.1836 138.184C68.8997 138.04 68.6771 137.844 68.5156 137.594C68.3568 137.341 68.2786 137.055 68.2812 136.734C68.2786 136.411 68.3568 136.124 68.5156 135.871C68.6771 135.618 68.8997 135.422 69.1836 135.281C69.4674 135.141 69.7865 135.07 70.1406 135.07ZM70.1406 135.695C69.9245 135.695 69.7292 135.74 69.5547 135.828C69.3828 135.914 69.2474 136.036 69.1484 136.195C69.0521 136.352 69.0052 136.531 69.0078 136.734C69.0052 136.938 69.0521 137.118 69.1484 137.277C69.2448 137.434 69.3789 137.555 69.5508 137.641C69.7253 137.727 69.9219 137.771 70.1406 137.773C70.3594 137.771 70.5547 137.727 70.7266 137.641C70.901 137.555 71.0365 137.434 71.1328 137.277C71.2318 137.118 71.2812 136.938 71.2812 136.734C71.2812 136.531 71.2318 136.352 71.1328 136.195C71.0339 136.036 70.8971 135.914 70.7227 135.828C70.5508 135.74 70.3568 135.695 70.1406 135.695ZM71.4141 138.984C71.888 138.984 72.2995 139.038 72.6484 139.145C72.9974 139.249 73.2656 139.401 73.4531 139.602C73.6406 139.802 73.7344 140.042 73.7344 140.32C73.7344 140.596 73.6406 140.835 73.4531 141.035C73.2656 141.236 72.9974 141.388 72.6484 141.492C72.2995 141.599 71.888 141.651 71.4141 141.648C70.9349 141.651 70.5182 141.599 70.1641 141.492C69.8099 141.388 69.5378 141.236 69.3477 141.035C69.1576 140.835 69.0625 140.596 69.0625 140.32C69.0625 140.042 69.1576 139.802 69.3477 139.602C69.5378 139.401 69.8086 139.249 70.1602 139.145C70.5143 139.038 70.9323 138.984 71.4141 138.984ZM71.4141 139.586C70.9036 139.586 70.5065 139.65 70.2227 139.777C69.9414 139.905 69.8021 140.086 69.8047 140.32C69.8021 140.557 69.9414 140.74 70.2227 140.867C70.5039 140.992 70.901 141.055 71.4141 141.055C71.9219 141.055 72.3138 140.992 72.5898 140.867C72.8685 140.74 73.0078 140.557 73.0078 140.32C73.0078 140.086 72.8685 139.905 72.5898 139.777C72.3112 139.65 71.9193 139.586 71.4141 139.586Z" fill="#8C8C8C"/>
<path d="M48 102C48 99.7909 49.7909 98 52 98H84C86.2091 98 88 99.7909 88 102V128C88 130.209 86.2091 132 84 132H52C49.7909 132 48 130.209 48 128V102Z" fill="#D9D9D9"/>
<path d="M61.5 121.375L63.4609 119.398C63.6979 119.148 63.8789 118.948 64.0039 118.797C64.1289 118.646 64.224 118.499 64.2891 118.355C64.3568 118.21 64.3906 118.057 64.3906 117.898C64.3906 117.716 64.3451 117.556 64.2539 117.418C64.1628 117.28 64.0378 117.173 63.8789 117.098C63.7201 117.022 63.5417 116.984 63.3438 116.984C63.138 116.984 62.957 117.026 62.8008 117.109C62.6445 117.193 62.5234 117.31 62.4375 117.461C62.3542 117.612 62.3125 117.786 62.3125 117.984H61.5C61.4974 117.646 61.5755 117.346 61.7344 117.086C61.8932 116.826 62.1146 116.624 62.3984 116.48C62.6823 116.337 63.0026 116.266 63.3594 116.266C63.7188 116.266 64.0378 116.336 64.3164 116.477C64.5977 116.615 64.8164 116.806 64.9727 117.051C65.1289 117.296 65.2083 117.57 65.2109 117.875C65.2083 118.091 65.1667 118.299 65.0859 118.5C65.0052 118.698 64.8672 118.919 64.6719 119.164C64.4766 119.406 64.2005 119.703 63.8438 120.055L62.6953 121.219V121.266H65.3047V122H61.5V121.375ZM68.0266 122.078C67.5917 122.078 67.218 121.965 66.9055 121.738C66.5956 121.512 66.3586 121.181 66.1945 120.746C66.0305 120.309 65.9484 119.784 65.9484 119.172C65.9484 118.565 66.0305 118.044 66.1945 117.609C66.3612 117.172 66.6008 116.839 66.9133 116.609C67.2258 116.38 67.5969 116.266 68.0266 116.266C68.4563 116.266 68.8273 116.38 69.1398 116.609C69.4523 116.839 69.6906 117.172 69.8547 117.609C70.0214 118.044 70.1047 118.565 70.1047 119.172C70.1047 119.784 70.0227 120.307 69.8586 120.742C69.6945 121.177 69.4563 121.509 69.1438 121.738C68.8313 121.965 68.4589 122.078 68.0266 122.078ZM68.0266 121.336C68.2818 121.336 68.5005 121.254 68.6828 121.09C68.8651 120.923 69.0044 120.678 69.1008 120.355C69.1971 120.033 69.2453 119.638 69.2453 119.172C69.2453 118.708 69.1958 118.314 69.0969 117.988C69.0005 117.66 68.8612 117.413 68.6789 117.246C68.4966 117.077 68.2792 116.992 68.0266 116.992C67.774 116.992 67.5565 117.077 67.3742 117.246C67.1919 117.413 67.0513 117.66 66.9523 117.988C66.856 118.314 66.8078 118.708 66.8078 119.172C66.8078 119.638 66.856 120.033 66.9523 120.355C67.0487 120.678 67.188 120.923 67.3703 121.09C67.5526 121.254 67.7714 121.336 68.0266 121.336ZM72.7641 122.078C72.3292 122.078 71.9555 121.965 71.643 121.738C71.3331 121.512 71.0961 121.181 70.932 120.746C70.768 120.309 70.6859 119.784 70.6859 119.172C70.6859 118.565 70.768 118.044 70.932 117.609C71.0987 117.172 71.3383 116.839 71.6508 116.609C71.9633 116.38 72.3344 116.266 72.7641 116.266C73.1938 116.266 73.5648 116.38 73.8773 116.609C74.1898 116.839 74.4281 117.172 74.5922 117.609C74.7589 118.044 74.8422 118.565 74.8422 119.172C74.8422 119.784 74.7602 120.307 74.5961 120.742C74.432 121.177 74.1938 121.509 73.8813 121.738C73.5688 121.965 73.1964 122.078 72.7641 122.078ZM72.7641 121.336C73.0193 121.336 73.238 121.254 73.4203 121.09C73.6026 120.923 73.7419 120.678 73.8383 120.355C73.9346 120.033 73.9828 119.638 73.9828 119.172C73.9828 118.708 73.9333 118.314 73.8344 117.988C73.738 117.66 73.5987 117.413 73.4164 117.246C73.2341 117.077 73.0167 116.992 72.7641 116.992C72.5115 116.992 72.294 117.077 72.1117 117.246C71.9294 117.413 71.7888 117.66 71.6898 117.988C71.5935 118.314 71.5453 118.708 71.5453 119.172C71.5453 119.638 71.5935 120.033 71.6898 120.355C71.7862 120.678 71.9255 120.923 72.1078 121.09C72.2901 121.254 72.5089 121.336 72.7641 121.336Z" fill="#111111"/>
<path d="M96 79C96 76.7909 97.7909 75 100 75H132C134.209 75 136 76.7909 136 79V127C136 129.209 134.209 131 132 131H100C97.7909 131 96 129.209 96 127V79Z" fill="#D9D9D9"/>
<path d="M109.375 119.203L111.875 115.344H112.938V119.172H113.711V119.898H112.938V121H112.125V119.898H109.375V119.203ZM112.125 119.172V116.367H112.062L110.281 119.125V119.172H112.125ZM116.347 121.078C115.912 121.078 115.538 120.965 115.226 120.738C114.916 120.512 114.679 120.181 114.515 119.746C114.351 119.309 114.269 118.784 114.269 118.172C114.269 117.565 114.351 117.044 114.515 116.609C114.682 116.172 114.921 115.839 115.234 115.609C115.546 115.38 115.917 115.266 116.347 115.266C116.777 115.266 117.148 115.38 117.46 115.609C117.773 115.839 118.011 116.172 118.175 116.609C118.342 117.044 118.425 117.565 118.425 118.172C118.425 118.784 118.343 119.307 118.179 119.742C118.015 120.177 117.777 120.509 117.464 120.738C117.152 120.965 116.779 121.078 116.347 121.078ZM116.347 120.336C116.602 120.336 116.821 120.254 117.003 120.09C117.185 119.923 117.325 119.678 117.421 119.355C117.517 119.033 117.566 118.638 117.566 118.172C117.566 117.708 117.516 117.314 117.417 116.988C117.321 116.66 117.182 116.413 116.999 116.246C116.817 116.077 116.599 115.992 116.347 115.992C116.094 115.992 115.877 116.077 115.695 116.246C115.512 116.413 115.372 116.66 115.273 116.988C115.176 117.314 115.128 117.708 115.128 118.172C115.128 118.638 115.176 119.033 115.273 119.355C115.369 119.678 115.508 119.923 115.691 120.09C115.873 120.254 116.092 120.336 116.347 120.336ZM121.084 121.078C120.649 121.078 120.276 120.965 119.963 120.738C119.653 120.512 119.416 120.181 119.252 119.746C119.088 119.309 119.006 118.784 119.006 118.172C119.006 117.565 119.088 117.044 119.252 116.609C119.419 116.172 119.659 115.839 119.971 115.609C120.284 115.38 120.655 115.266 121.084 115.266C121.514 115.266 121.885 115.38 122.198 115.609C122.51 115.839 122.748 116.172 122.913 116.609C123.079 117.044 123.163 117.565 123.163 118.172C123.163 118.784 123.08 119.307 122.916 119.742C122.752 120.177 122.514 120.509 122.202 120.738C121.889 120.965 121.517 121.078 121.084 121.078ZM121.084 120.336C121.34 120.336 121.558 120.254 121.741 120.09C121.923 119.923 122.062 119.678 122.159 119.355C122.255 119.033 122.303 118.638 122.303 118.172C122.303 117.708 122.254 117.314 122.155 116.988C122.058 116.66 121.919 116.413 121.737 116.246C121.554 116.077 121.337 115.992 121.084 115.992C120.832 115.992 120.614 116.077 120.432 116.246C120.25 116.413 120.109 116.66 120.01 116.988C119.914 117.314 119.866 117.708 119.866 118.172C119.866 118.638 119.914 119.033 120.01 119.355C120.107 119.678 120.246 119.923 120.428 120.09C120.61 120.254 120.829 120.336 121.084 120.336Z" fill="#111111"/>
<path d="M111.387 134.656V136.75H112.402V137.375H111.387V139.805H110.645V134.656H111.387ZM111.684 140.914V141.516H106.949V139.266H107.691V140.914H111.684ZM107.855 135.141C108.91 135.141 109.715 135.859 109.723 136.883C109.715 137.898 108.91 138.625 107.855 138.625C106.801 138.625 105.988 137.898 105.996 136.883C105.988 135.859 106.801 135.141 107.855 135.141ZM107.855 135.789C107.215 135.789 106.715 136.234 106.723 136.883C106.715 137.531 107.215 137.977 107.855 137.977C108.504 137.977 108.996 137.531 108.996 136.883C108.996 136.234 108.504 135.789 107.855 135.789ZM116.27 135.078V137.078H113.832V137.977C115.047 137.973 115.906 137.93 116.926 137.758L117.004 138.359C115.918 138.547 114.996 138.586 113.652 138.586H113.09V136.5H115.543V135.68H113.082V135.078H116.27ZM118.301 134.672V136.422H119.324V137.039H118.301V138.922H117.559V134.672H118.301ZM118.301 139.273V141.656H117.559V139.875H113.676V139.273H118.301ZM122.145 136.445C122.137 137.688 122.855 138.953 123.902 139.461L123.441 140.055C122.68 139.66 122.09 138.875 121.785 137.938C121.469 138.938 120.855 139.773 120.059 140.188L119.598 139.586C120.676 139.07 121.402 137.727 121.402 136.445V135.25H122.145V136.445ZM125.168 134.664V137.453H126.293V138.086H125.168V141.664H124.426V134.664H125.168Z" fill="#8C8C8C"/>
<rect x="144" y="18" width="40" height="113" rx="4" fill="#111111"/>
<path d="M158.667 116.125V116.078H155.753V115.344H159.558V116.109L157.042 121H156.144L158.667 116.125ZM163.1 116.125V116.078H160.186V115.344H163.991V116.109L161.475 121H160.577L163.1 116.125ZM166.525 121.078C166.121 121.078 165.761 121.01 165.443 120.875C165.128 120.74 164.882 120.552 164.705 120.312C164.53 120.07 164.444 119.797 164.447 119.492C164.444 119.255 164.495 119.035 164.599 118.832C164.703 118.626 164.845 118.457 165.025 118.324C165.207 118.189 165.408 118.104 165.627 118.07V118.039C165.436 117.995 165.267 117.913 165.119 117.793C164.973 117.671 164.86 117.521 164.779 117.344C164.698 117.167 164.658 116.977 164.658 116.773C164.658 116.487 164.739 116.229 164.9 116C165.061 115.771 165.284 115.591 165.568 115.461C165.852 115.331 166.171 115.266 166.525 115.266C166.877 115.266 167.193 115.331 167.474 115.461C167.758 115.591 167.979 115.771 168.138 116C168.3 116.229 168.382 116.487 168.384 116.773C168.382 116.977 168.339 117.167 168.255 117.344C168.175 117.521 168.061 117.671 167.916 117.793C167.77 117.913 167.603 117.995 167.416 118.039V118.07C167.632 118.104 167.83 118.189 168.009 118.324C168.192 118.457 168.335 118.626 168.439 118.832C168.546 119.035 168.601 119.255 168.603 119.492C168.601 119.797 168.511 120.07 168.334 120.312C168.157 120.552 167.91 120.74 167.595 120.875C167.28 121.01 166.923 121.078 166.525 121.078ZM166.525 120.367C166.767 120.367 166.978 120.328 167.158 120.25C167.34 120.172 167.481 120.062 167.58 119.922C167.679 119.779 167.728 119.615 167.728 119.43C167.728 119.237 167.676 119.064 167.572 118.91C167.468 118.757 167.324 118.637 167.142 118.551C166.96 118.465 166.754 118.422 166.525 118.422C166.293 118.422 166.085 118.465 165.9 118.551C165.715 118.637 165.571 118.757 165.466 118.91C165.365 119.064 165.317 119.237 165.322 119.43C165.317 119.615 165.362 119.777 165.459 119.918C165.555 120.059 165.694 120.169 165.877 120.25C166.061 120.328 166.278 120.367 166.525 120.367ZM166.525 117.742C166.72 117.742 166.895 117.706 167.048 117.633C167.205 117.557 167.326 117.452 167.412 117.316C167.498 117.181 167.541 117.026 167.541 116.852C167.541 116.68 167.498 116.527 167.412 116.395C167.326 116.259 167.206 116.155 167.052 116.082C166.899 116.007 166.723 115.969 166.525 115.969C166.319 115.969 166.138 116.005 165.982 116.078C165.826 116.151 165.705 116.255 165.619 116.391C165.535 116.523 165.494 116.677 165.494 116.852C165.494 117.026 165.538 117.181 165.627 117.316C165.715 117.452 165.838 117.557 165.994 117.633C166.15 117.706 166.327 117.742 166.525 117.742ZM169.294 120.375L171.255 118.398C171.492 118.148 171.673 117.948 171.798 117.797C171.923 117.646 172.018 117.499 172.083 117.355C172.151 117.21 172.184 117.057 172.184 116.898C172.184 116.716 172.139 116.556 172.048 116.418C171.957 116.28 171.832 116.173 171.673 116.098C171.514 116.022 171.335 115.984 171.137 115.984C170.932 115.984 170.751 116.026 170.595 116.109C170.438 116.193 170.317 116.31 170.231 116.461C170.148 116.612 170.106 116.786 170.106 116.984H169.294C169.291 116.646 169.369 116.346 169.528 116.086C169.687 115.826 169.908 115.624 170.192 115.48C170.476 115.337 170.796 115.266 171.153 115.266C171.512 115.266 171.832 115.336 172.11 115.477C172.391 115.615 172.61 115.806 172.766 116.051C172.923 116.296 173.002 116.57 173.005 116.875C173.002 117.091 172.96 117.299 172.88 117.5C172.799 117.698 172.661 117.919 172.466 118.164C172.27 118.406 171.994 118.703 171.637 119.055L170.489 120.219V120.266H173.098V121H169.294V120.375Z" fill="white"/>
<path d="M159.664 140.797H153.258V140.18H156.078V138.742H153.992V135.141H154.734V136.344H158.172V135.141H158.906V138.742H156.812V140.18H159.664V140.797ZM158.172 138.141V136.945H154.734V138.141H158.172ZM166.234 136.25H160.477V135.648H162.992V134.766H163.727V135.648H166.234V136.25ZM166.578 140.875H160.172V140.273H162.992V139.348C162.583 139.322 162.232 139.253 161.938 139.141C161.643 139.026 161.417 138.874 161.258 138.684C161.102 138.491 161.023 138.266 161.023 138.008C161.023 137.729 161.117 137.49 161.305 137.289C161.492 137.089 161.762 136.936 162.113 136.832C162.465 136.725 162.88 136.672 163.359 136.672C163.836 136.672 164.249 136.725 164.598 136.832C164.947 136.936 165.215 137.089 165.402 137.289C165.592 137.49 165.688 137.729 165.688 138.008C165.688 138.263 165.608 138.487 165.449 138.68C165.293 138.872 165.068 139.026 164.773 139.141C164.479 139.253 164.13 139.322 163.727 139.348V140.273H166.578V140.875ZM163.359 137.258C162.857 137.258 162.467 137.323 162.191 137.453C161.915 137.583 161.779 137.768 161.781 138.008C161.779 138.247 161.914 138.432 162.188 138.562C162.464 138.693 162.854 138.76 163.359 138.766C163.857 138.76 164.242 138.693 164.516 138.562C164.792 138.432 164.93 138.247 164.93 138.008C164.93 137.768 164.792 137.583 164.516 137.453C164.24 137.323 163.854 137.258 163.359 137.258ZM173.469 138.508H170.641V139.18C171.289 139.216 171.792 139.341 172.148 139.555C172.508 139.766 172.688 140.052 172.688 140.414C172.688 140.677 172.591 140.901 172.398 141.086C172.206 141.273 171.928 141.414 171.566 141.508C171.207 141.604 170.776 141.651 170.273 141.648C169.766 141.651 169.329 141.604 168.965 141.508C168.603 141.414 168.326 141.273 168.133 141.086C167.94 140.901 167.844 140.677 167.844 140.414C167.844 140.052 168.023 139.766 168.383 139.555C168.742 139.341 169.25 139.216 169.906 139.18V138.508H167.086V137.906H173.469V138.508ZM170.273 139.742C169.737 139.742 169.323 139.801 169.031 139.918C168.74 140.035 168.594 140.201 168.594 140.414C168.594 140.625 168.741 140.789 169.035 140.906C169.329 141.023 169.742 141.081 170.273 141.078C170.622 141.081 170.922 141.056 171.172 141.004C171.424 140.952 171.616 140.876 171.746 140.777C171.879 140.676 171.945 140.555 171.945 140.414C171.945 140.201 171.798 140.035 171.504 139.918C171.212 139.801 170.802 139.742 170.273 139.742ZM172.898 135.578H170.773C170.807 135.799 170.931 136.008 171.145 136.203C171.361 136.398 171.642 136.562 171.988 136.695C172.337 136.826 172.721 136.911 173.141 136.953L172.875 137.539C172.471 137.492 172.095 137.406 171.746 137.281C171.4 137.154 171.099 136.993 170.844 136.801C170.591 136.608 170.402 136.389 170.277 136.145C170.15 136.389 169.958 136.608 169.703 136.801C169.451 136.993 169.151 137.154 168.805 137.281C168.458 137.406 168.083 137.492 167.68 137.539L167.422 136.953C167.836 136.911 168.215 136.826 168.559 136.695C168.905 136.562 169.185 136.398 169.398 136.203C169.615 136.008 169.74 135.799 169.773 135.578H167.672V134.984H172.898V135.578Z" fill="#8C8C8C"/>
<path d="M11.7656 4.39062C11.7656 5.29167 11.7448 6.09115 11.7031 6.78906C11.6615 7.48177 11.5573 8.27083 11.3906 9.15625H13.3438V10.5625H7.73438V16.4062H5.98438V10.5625H0.46875V9.15625H9.625C9.79688 8.30208 9.90625 7.52604 9.95312 6.82812C10.0052 6.13021 10.0312 5.36458 10.0312 4.53125H1.98438V3.125H11.7656V4.39062ZM26.8031 14.6875H13.8969V13.2656H19.475V10.0156H21.2094V13.2656H26.8031V14.6875ZM25.6938 4.82812H21.2406C21.2563 5.5 21.4828 6.14062 21.9203 6.75C22.363 7.35938 22.9646 7.8776 23.725 8.30469C24.4854 8.73177 25.3396 9.01562 26.2875 9.15625L25.6 10.5312C24.3969 10.3125 23.3318 9.90104 22.4047 9.29688C21.4828 8.69271 20.7953 7.95312 20.3422 7.07812C19.8891 7.96875 19.2042 8.72396 18.2875 9.34375C17.3708 9.96354 16.324 10.3854 15.1469 10.6094L14.4594 9.23438C15.3813 9.07812 16.2172 8.78125 16.9672 8.34375C17.7172 7.90625 18.3083 7.38021 18.7406 6.76562C19.1729 6.14583 19.3969 5.5 19.4125 4.82812H14.975V3.40625H25.6938V4.82812ZM40.2156 10.4219H27.325V9.03125H32.9188V7.6875H28.9031V2.90625H38.6531V4.26562H30.6375V6.3125H38.7313V7.6875H34.6219V9.03125H40.2156V10.4219ZM33.7469 11.2344C34.7625 11.2344 35.6349 11.3359 36.3641 11.5391C37.0932 11.737 37.6531 12.0286 38.0438 12.4141C38.4344 12.7995 38.6323 13.2656 38.6375 13.8125C38.6323 14.3542 38.4344 14.8177 38.0438 15.2031C37.6531 15.5885 37.0906 15.8828 36.3563 16.0859C35.6271 16.2891 34.7573 16.3906 33.7469 16.3906C32.726 16.3906 31.8458 16.2891 31.1063 16.0859C30.3667 15.8828 29.8016 15.5885 29.4109 15.2031C29.0203 14.8177 28.825 14.3542 28.825 13.8125C28.825 13.2656 29.0203 12.7995 29.4109 12.4141C29.8016 12.0286 30.3641 11.737 31.0984 11.5391C31.838 11.3359 32.7208 11.2344 33.7469 11.2344ZM33.7469 12.5625C32.7156 12.5625 31.9292 12.6693 31.3875 12.8828C30.851 13.0964 30.5854 13.4062 30.5906 13.8125C30.5854 14.2188 30.851 14.526 31.3875 14.7344C31.924 14.9427 32.7104 15.0469 33.7469 15.0469C34.7625 15.0469 35.5411 14.9427 36.0828 14.7344C36.6245 14.526 36.8979 14.2188 36.9031 13.8125C36.8979 13.4062 36.6219 13.0964 36.075 12.8828C35.5333 12.6693 34.7573 12.5625 33.7469 12.5625ZM53.6281 9.375H48.0344V10.4375H52.0187V13.9062H43.9875V14.9375H52.4094V16.2656H42.2844V12.6562H50.3156V11.75H42.2687V10.4375H46.3V9.375H40.7531V8H53.6281V9.375ZM51.9719 7.10938H42.3781V2.70312H51.9719V7.10938ZM44.0812 5.75H50.2375V4.0625H44.0812V5.75ZM66.0094 13.0312H64.275V10.25H62.1813V8.85938H64.275V7.28125H62.1813V5.875H64.275V2.28125H66.0094V13.0312ZM62.1031 5.23438H54.2125V3.84375H57.3688V2.26562H59.1031V3.84375H62.1031V5.23438ZM58.2125 5.8125C58.8479 5.8125 59.4156 5.92969 59.9156 6.16406C60.4156 6.39323 60.8063 6.71615 61.0875 7.13281C61.374 7.54948 61.5198 8.02604 61.525 8.5625C61.5198 9.09896 61.374 9.57552 61.0875 9.99219C60.8063 10.4089 60.4156 10.7344 59.9156 10.9688C59.4156 11.1979 58.8479 11.3125 58.2125 11.3125C57.5823 11.3125 57.0172 11.1979 56.5172 10.9688C56.0224 10.7344 55.6344 10.4089 55.3531 9.99219C55.0771 9.57031 54.9417 9.09375 54.9469 8.5625C54.9417 8.03125 55.0771 7.55729 55.3531 7.14062C55.6344 6.71875 56.0224 6.39323 56.5172 6.16406C57.0172 5.92969 57.5823 5.8125 58.2125 5.8125ZM58.2125 7.17188C57.7177 7.18229 57.3193 7.3125 57.0172 7.5625C56.7151 7.80729 56.5667 8.14062 56.5719 8.5625C56.5667 9 56.7151 9.34375 57.0172 9.59375C57.3193 9.84375 57.7177 9.96875 58.2125 9.96875C58.7073 9.96875 59.1083 9.84375 59.4156 9.59375C59.7281 9.34375 59.8844 9 59.8844 8.5625C59.8844 8.14062 59.7281 7.80729 59.4156 7.5625C59.1083 7.3125 58.7073 7.18229 58.2125 7.17188ZM66.3219 16.1094H56.6969V12.1094H58.4625V14.7031H66.3219V16.1094ZM78.7969 6.375H80.7031V7.79688H78.7969V11.8281H77.0625V2.28125H78.7969V6.375ZM74.125 11.9531C75.125 11.9531 75.9792 12.0391 76.6875 12.2109C77.3958 12.3828 77.9349 12.638 78.3047 12.9766C78.6797 13.3099 78.8698 13.7135 78.875 14.1875C78.8698 14.901 78.4531 15.4453 77.625 15.8203C76.8021 16.2005 75.6354 16.3906 74.125 16.3906C72.5938 16.3906 71.4167 16.2005 70.5938 15.8203C69.7708 15.4453 69.3594 14.901 69.3594 14.1875C69.3594 13.7083 69.5443 13.3021 69.9141 12.9688C70.2839 12.6354 70.8255 12.3828 71.5391 12.2109C72.2526 12.0391 73.1146 11.9531 74.125 11.9531ZM74.125 13.2344C72.1042 13.2188 71.0938 13.5365 71.0938 14.1875C71.0938 14.4896 71.3464 14.7188 71.8516 14.875C72.362 15.0312 73.1198 15.1094 74.125 15.1094C75.1146 15.1094 75.8594 15.0312 76.3594 14.875C76.8594 14.7188 77.1146 14.4896 77.125 14.1875C77.1094 13.5365 76.1094 13.2188 74.125 13.2344ZM67.4844 10.0156C69.0104 10.0156 70.1979 10.0026 71.0469 9.97656V9.04688C70.25 8.95833 69.6224 8.74219 69.1641 8.39844C68.7109 8.04948 68.4844 7.60938 68.4844 7.07812C68.4844 6.66667 68.6224 6.3099 68.8984 6.00781C69.1797 5.70052 69.5755 5.46615 70.0859 5.30469C70.6016 5.14323 71.2031 5.0625 71.8906 5.0625C72.5781 5.0625 73.1771 5.14323 73.6875 5.30469C74.2031 5.46615 74.599 5.70052 74.875 6.00781C75.1562 6.3099 75.2969 6.66667 75.2969 7.07812C75.2969 7.60417 75.0729 8.03906 74.625 8.38281C74.1823 8.72656 73.5677 8.94531 72.7812 9.03906V9.91406C74.0885 9.84635 75.2708 9.73958 76.3281 9.59375L76.4688 10.7969C75.125 11.026 73.7318 11.1771 72.2891 11.25C70.8516 11.3229 69.3125 11.3594 67.6719 11.3594L67.4844 10.0156ZM75.9531 4.64062H67.8438V3.35938H71.0469V2.15625H72.7812V3.35938H75.9531V4.64062ZM71.8906 6.21875C71.3438 6.21875 70.9141 6.29688 70.6016 6.45312C70.2943 6.60417 70.1458 6.8125 70.1562 7.07812C70.151 7.35938 70.2995 7.57552 70.6016 7.72656C70.9089 7.8776 71.3385 7.95312 71.8906 7.95312C72.4427 7.95312 72.8724 7.8776 73.1797 7.72656C73.487 7.57552 73.6406 7.35938 73.6406 7.07812C73.6406 6.8125 73.4844 6.60417 73.1719 6.45312C72.8646 6.29688 72.4375 6.21875 71.8906 6.21875Z" fill="#8C8C8C"/>
</svg>
