<svg width="18" height="21" viewBox="0 0 18 21" fill="none" xmlns="http://www.w3.org/2000/svg">
<path d="M1.28571 19.2H6.03257V12.6001C6.03257 12.3028 6.13243 12.0537 6.33214 11.8526C6.531 11.6507 6.77743 11.5497 7.07143 11.5497H10.9286C11.2226 11.5497 11.4694 11.6507 11.6691 11.8526C11.868 12.0537 11.9674 12.3028 11.9674 12.6001V19.2H16.7143V7.90071C16.7143 7.76725 16.6856 7.64592 16.6281 7.53672C16.5707 7.42753 16.4923 7.3322 16.3929 7.25073L9.47057 1.97546C9.33857 1.85933 9.18171 1.80127 9 1.80127C8.81829 1.80127 8.66186 1.85933 8.53071 1.97546L1.60714 7.25073C1.50857 7.33393 1.43014 7.42926 1.37186 7.53672C1.31357 7.64419 1.28486 7.76552 1.28571 7.90071V19.2ZM0 19.2V7.90071C0 7.56792 0.0737142 7.2529 0.221143 6.95564C0.368571 6.65838 0.571714 6.41355 0.830571 6.22116L7.75414 0.91989C8.11671 0.639964 8.53071 0.5 8.99614 0.5C9.46157 0.5 9.87814 0.639964 10.2459 0.91989L17.1694 6.21986C17.4291 6.41225 17.6323 6.65751 17.7789 6.95564C17.9263 7.2529 18 7.56792 18 7.90071V19.2C18 19.5484 17.8719 19.8522 17.6156 20.1113C17.3593 20.3704 17.0589 20.5 16.7143 20.5H11.7206C11.4257 20.5 11.1789 20.3995 10.98 20.1984C10.7811 19.9965 10.6817 19.7469 10.6817 19.4496V12.851H7.31829V19.4496C7.31829 19.7478 7.21886 19.9973 7.02 20.1984C6.82114 20.3995 6.57471 20.5 6.28071 20.5H1.28571C0.941143 20.5 0.640714 20.3704 0.384428 20.1113C0.128143 19.8522 0 19.5484 0 19.2Z" fill="#8C8C8C"/>
</svg>
