<svg width="16" height="16" viewBox="0 0 16 16" fill="none" xmlns="http://www.w3.org/2000/svg">
<path id="Vector" fill-rule="evenodd" clip-rule="evenodd" d="M5.71429 0C5.56273 0 5.41739 0.0602039 5.31023 0.167368C5.20306 0.274531 5.14286 0.419876 5.14286 0.571429V5.14286H0.571429C0.419876 5.14286 0.274531 5.20306 0.167368 5.31023C0.0602039 5.41739 0 5.56273 0 5.71429L0 10.2857C0 10.4373 0.0602039 10.5826 0.167368 10.6898C0.274531 10.7969 0.419876 10.8571 0.571429 10.8571H5.14286V15.4286C5.14286 15.5801 5.20306 15.7255 5.31023 15.8326C5.41739 15.9398 5.56273 16 5.71429 16H10.2857C10.4373 16 10.5826 15.9398 10.6898 15.8326C10.7969 15.7255 10.8571 15.5801 10.8571 15.4286V10.8571H15.4286C15.5801 10.8571 15.7255 10.7969 15.8326 10.6898C15.9398 10.5826 16 10.4373 16 10.2857V5.71429C16 5.56273 15.9398 5.41739 15.8326 5.31023C15.7255 5.20306 15.5801 5.14286 15.4286 5.14286H10.8571V0.571429C10.8571 0.419876 10.7969 0.274531 10.6898 0.167368C10.5826 0.0602039 10.4373 0 10.2857 0L5.71429 0Z" fill="white"/>
</svg>
