<svg width="16" height="16" viewBox="0 0 16 16" fill="none" xmlns="http://www.w3.org/2000/svg">
<path id="Vector" d="M5.71387 0.5H10.2861C10.3048 0.500109 10.3227 0.507428 10.3359 0.520508C10.3493 0.53387 10.3574 0.552394 10.3574 0.571289V5.64258H15.4287C15.4476 5.64261 15.4661 5.6507 15.4795 5.66406C15.4926 5.67732 15.4999 5.69523 15.5 5.71387V10.2861C15.4999 10.3048 15.4926 10.3227 15.4795 10.3359C15.4661 10.3493 15.4476 10.3574 15.4287 10.3574H10.3574V15.4287C10.3574 15.4476 10.3493 15.4661 10.3359 15.4795C10.3227 15.4926 10.3048 15.4999 10.2861 15.5H5.71387C5.69523 15.4999 5.67732 15.4926 5.66406 15.4795C5.6507 15.4661 5.64261 15.4476 5.64258 15.4287V10.3574H0.571289C0.552394 10.3574 0.53387 10.3493 0.520508 10.3359C0.507428 10.3227 0.500109 10.3048 0.5 10.2861V5.71387L0.505859 5.68652C0.509347 5.67829 0.514109 5.67055 0.520508 5.66406C0.53387 5.6507 0.552395 5.64261 0.571289 5.64258H5.64258V0.571289C5.64261 0.552395 5.6507 0.53387 5.66406 0.520508C5.67732 0.507427 5.69524 0.500109 5.71387 0.5Z" fill="white" stroke="black"/>
</svg>
