<svg width="20" height="20" viewBox="0 0 20 20" fill="none" xmlns="http://www.w3.org/2000/svg">
<g id="mingcute:heart-line">
<g id="Group">
<path id="Vector" fill-rule="evenodd" clip-rule="evenodd" d="M15.4117 3.16753C17.1575 4.18503 18.3858 6.25086 18.3317 8.66086C18.2642 11.6692 15.9233 14.3225 11.9325 16.6925C11.3408 17.0442 10.7175 17.5 10 17.5C9.29585 17.5 8.64585 17.0359 8.06668 16.6917C4.07752 14.3225 1.73585 11.6684 1.66835 8.66086C1.61418 6.25086 2.84252 4.18586 4.58835 3.16753C6.22168 2.21669 8.27335 2.21086 10 3.61503C11.7267 2.21086 13.7783 2.21586 15.4117 3.16753ZM14.5725 4.60836C13.4108 3.9317 11.9592 3.95586 10.7025 5.22753C10.6104 5.32 10.5009 5.39337 10.3804 5.44343C10.2598 5.4935 10.1305 5.51927 10 5.51927C9.86948 5.51927 9.74023 5.4935 9.61968 5.44343C9.49913 5.39337 9.38965 5.32 9.29752 5.22753C8.04085 3.95586 6.58918 3.9317 5.42752 4.60836C4.22418 5.31003 3.29418 6.79836 3.33502 8.62503C3.38168 10.7175 5.03502 12.9534 8.91835 15.26C9.25835 15.4625 9.61335 15.7217 10 15.8292C10.3867 15.7217 10.7417 15.4625 11.0817 15.26C14.965 12.9534 16.6183 10.7184 16.665 8.62419C16.7067 6.79919 15.7758 5.31003 14.5725 4.60836Z" fill="black"/>
</g>
</g>
</svg>
