<svg width="24" height="25" viewBox="0 0 24 25" fill="none" xmlns="http://www.w3.org/2000/svg">
<path d="M2.5 6.2C2.5 5.08 2.5 4.52 2.718 4.092C2.90974 3.71569 3.21569 3.40974 3.592 3.218C4.02 3 4.58 3 5.7 3H18.3C19.42 3 19.98 3 20.408 3.218C20.7843 3.40974 21.0903 3.71569 21.282 4.092C21.5 4.52 21.5 5.08 21.5 6.2V18.8C21.5 19.92 21.5 20.48 21.282 20.908C21.0903 21.2843 20.7843 21.5903 20.408 21.782C19.98 22 19.42 22 18.3 22H5.7C4.58 22 4.02 22 3.592 21.782C3.21569 21.5903 2.90974 21.2843 2.718 20.908C2.5 20.48 2.5 19.92 2.5 18.8V6.2Z" stroke="#111111" stroke-linecap="round"/>
<path d="M18.5 22L12.5 7M21.5 5L2.5 9M12.5 15.53C12.5 17.688 10.36 19.204 9.427 19.763C9.29801 19.8404 9.15042 19.8813 9 19.8813C8.84958 19.8813 8.70199 19.8404 8.573 19.763C7.64 19.204 5.5 17.688 5.5 15.529C5.5 13.412 7.196 12 9 12C10.867 12 12.5 13.412 12.5 15.53Z" stroke="#111111"/>
<path d="M9 16.5C9.55228 16.5 10 16.0523 10 15.5C10 14.9477 9.55228 14.5 9 14.5C8.44772 14.5 8 14.9477 8 15.5C8 16.0523 8.44772 16.5 9 16.5Z" fill="#111111"/>
</svg>
