<svg width="32" height="32" viewBox="0 0 32 32" fill="none" xmlns="http://www.w3.org/2000/svg">
<path d="M19.312 26.3158L11.9987 23.7638L6.79603 25.7758C6.60936 25.8504 6.43114 25.874 6.26136 25.8464C6.0907 25.8198 5.93336 25.7611 5.78936 25.6704C5.64536 25.5798 5.53336 25.458 5.45336 25.3051C5.37336 25.1522 5.33292 24.9762 5.33203 24.7771V8.54642C5.33203 8.29576 5.38981 8.07398 5.50536 7.88109C5.62092 7.6882 5.78892 7.55354 6.00936 7.47709L11.2854 5.68509C11.3956 5.64065 11.5098 5.60731 11.628 5.58509C11.7471 5.56287 11.8707 5.55176 11.9987 5.55176C12.1267 5.55176 12.2498 5.56287 12.368 5.58509C12.4863 5.60731 12.6005 5.64065 12.7107 5.68509L19.9987 8.23576L25.2014 6.22509C25.388 6.15042 25.5663 6.12642 25.736 6.15309C25.9058 6.17976 26.0631 6.23842 26.208 6.32909C26.3511 6.41976 26.4631 6.54154 26.544 6.69442C26.6249 6.84731 26.6654 7.02331 26.6654 7.22242V23.5678C26.6654 23.8202 26.5947 24.0402 26.4534 24.2278C26.3129 24.4162 26.1236 24.5486 25.8854 24.6251L20.6854 26.3411C20.5698 26.3855 20.456 26.4144 20.344 26.4278C20.2329 26.4411 20.1174 26.4478 19.9974 26.4478C19.8765 26.4478 19.7609 26.4371 19.6507 26.4158C19.5405 26.3944 19.4285 26.3611 19.312 26.3158ZM19.332 24.9384V9.33842L12.6654 7.01042V22.6104L19.332 24.9384Z" fill="#111111"/>
</svg>
