<svg width="81" height="81" viewBox="0 0 81 81" fill="none" xmlns="http://www.w3.org/2000/svg">
<g filter="url(#filter0_d_822_4650)">
<path d="M36.4255 42.2779L29.4561 35.0434C29.0939 34.6661 28.6528 34.4641 28.1328 34.4371C27.6103 34.4102 27.1356 34.6203 26.7087 35.0676C26.2948 35.4987 26.0878 35.9756 26.0878 36.4984C26.0878 37.0211 26.2948 37.498 26.7087 37.9291L34.2291 45.7619C34.8577 46.4139 35.5899 46.7399 36.4255 46.7399C37.2611 46.7399 37.9932 46.4139 38.6218 45.7619L54.2913 29.4416C54.669 29.0482 54.8669 28.5848 54.885 28.0513C54.9031 27.5151 54.7052 27.0247 54.2913 26.5801C53.8644 26.1355 53.4027 25.9092 52.906 25.9011C52.4093 25.893 51.9488 26.1113 51.5245 26.5559L36.4255 42.2779ZM27.5779 71.3213L22.4712 62.4297L12.8437 60.3118C12.0727 60.1637 11.4583 59.7325 11.0004 59.0185C10.5425 58.3072 10.3537 57.55 10.4339 56.7471L11.3535 46.4166L4.82267 38.6566C4.27422 38.0719 4 37.3525 4 36.4984C4 35.6442 4.27422 34.9248 4.82267 34.3401L11.3535 26.5801L10.4339 16.2537C10.3563 15.448 10.5451 14.6896 11.0004 13.9782C11.4583 13.2669 12.0727 12.8358 12.8437 12.6849L22.4673 10.5711L27.574 1.67944C27.9931 0.95733 28.5558 0.458859 29.2621 0.184026C29.9683 -0.0935017 30.6991 -0.0571269 31.4545 0.293151L40.5 4.27419L49.5416 0.293151C50.2996 -0.0571269 51.0317 -0.0935017 51.7379 0.184026C52.4442 0.458859 53.0069 0.95733 53.4259 1.67944L58.5288 10.5711L68.1563 12.6849C68.9273 12.8358 69.5417 13.2669 69.9996 13.9782C70.4575 14.6896 70.6463 15.448 70.5661 16.2537L69.6503 26.5801L76.1773 34.3401C76.7258 34.9248 77 35.6442 77 36.4984C77 37.3525 76.7258 38.0733 76.1773 38.6607L69.6503 46.4166L70.5661 56.7431C70.6437 57.5487 70.4549 58.3072 69.9996 59.0185C69.5417 59.7325 68.9273 60.1637 68.1563 60.3118L58.5327 62.4297L53.4259 71.3213C53.0069 72.0408 52.4442 72.5392 51.7379 72.8168C51.0317 73.0943 50.3009 73.0566 49.5454 72.7036L40.5 68.7225L31.4584 72.7036C30.7004 73.0539 29.9683 73.0902 29.2621 72.8127C28.5558 72.5379 27.9931 72.0394 27.574 71.3173" fill="#111111"/>
</g>
<defs>
<filter id="filter0_d_822_4650" x="0" y="0" width="81" height="81" filterUnits="userSpaceOnUse" color-interpolation-filters="sRGB">
<feFlood flood-opacity="0" result="BackgroundImageFix"/>
<feColorMatrix in="SourceAlpha" type="matrix" values="0 0 0 0 0 0 0 0 0 0 0 0 0 0 0 0 0 0 127 0" result="hardAlpha"/>
<feOffset dy="4"/>
<feGaussianBlur stdDeviation="2"/>
<feComposite in2="hardAlpha" operator="out"/>
<feColorMatrix type="matrix" values="0 0 0 0 0 0 0 0 0 0 0 0 0 0 0 0 0 0 0.25 0"/>
<feBlend mode="normal" in2="BackgroundImageFix" result="effect1_dropShadow_822_4650"/>
<feBlend mode="normal" in="SourceGraphic" in2="effect1_dropShadow_822_4650" result="shape"/>
</filter>
</defs>
</svg>
