<svg width="22" height="22" viewBox="0 0 22 22" fill="none" xmlns="http://www.w3.org/2000/svg">
<path d="M11.0033 4.7147L3.80621 11.7704C3.51399 12.0623 3.28218 12.4089 3.12402 12.7905C2.96586 13.172 2.88445 13.581 2.88445 13.994C2.88445 14.407 2.96586 14.816 3.12402 15.1975C3.28218 15.5791 3.51399 15.9257 3.80621 16.2176L5.78621 18.1976C6.07809 18.4898 6.42471 18.7216 6.80625 18.8798C7.18779 19.0379 7.59676 19.1193 8.00978 19.1193C8.4228 19.1193 8.83177 19.0379 9.2133 18.8798C9.59484 18.7216 9.94146 18.4898 10.2333 18.1976L17.2891 11.0004M16.5034 0.786133L21.2176 5.50042ZM14.1462 7.85756L18.8605 3.14328ZM4.79621 17.2076L0.789062 21.2147ZM8.64621 2.35756L19.6462 13.3576Z" fill="#111111"/>
<path d="M11.0033 4.7147L3.80621 11.7704C3.51399 12.0623 3.28218 12.4089 3.12402 12.7905C2.96586 13.172 2.88445 13.581 2.88445 13.994C2.88445 14.407 2.96586 14.816 3.12402 15.1975C3.28218 15.5791 3.51399 15.9257 3.80621 16.2176L5.78621 18.1976C6.07809 18.4898 6.42471 18.7216 6.80625 18.8798C7.18779 19.0379 7.59676 19.1193 8.00978 19.1193C8.4228 19.1193 8.83177 19.0379 9.2133 18.8798C9.59484 18.7216 9.94146 18.4898 10.2333 18.1976L17.2891 11.0004M16.5034 0.786133L21.2176 5.50042M14.1462 7.85756L18.8605 3.14328M4.79621 17.2076L0.789062 21.2147M8.64621 2.35756L19.6462 13.3576" stroke="#111111" stroke-linecap="round" stroke-linejoin="round"/>
</svg>
