<svg width="20" height="20" viewBox="0 0 20 20" fill="none" xmlns="http://www.w3.org/2000/svg">
<path d="M9.99902 3C5.58107 3 2.16504 5.85885 2.16504 9.16699C2.16526 12.475 5.58122 15.333 9.99902 15.333C10.9839 15.333 11.9286 15.1903 12.8008 14.9365L13.0605 14.8613L13.2656 15.0371C14.4066 16.0139 15.6769 16.5071 16.6699 16.7549C16.8049 16.7886 16.9346 16.8167 17.0576 16.8418C15.8513 15.3716 15.5863 14.3225 15.542 13.792L15.5205 13.5342L15.7188 13.3672C17.0436 12.2527 17.8319 10.7684 17.832 9.16699C17.832 5.85893 14.4168 3.00014 9.99902 3Z" stroke="#8C8C8C"/>
</svg>
