<svg width="20" height="20" viewBox="0 0 20 20" fill="none" xmlns="http://www.w3.org/2000/svg">
<g id="octicon:alert-24">
<path id="Vector" d="M10.8334 14.5833C10.8334 14.8043 10.7456 15.0163 10.5893 15.1726C10.433 15.3289 10.221 15.4167 10 15.4167C9.77901 15.4167 9.56705 15.3289 9.41076 15.1726C9.25448 15.0163 9.16669 14.8043 9.16669 14.5833C9.16669 14.3623 9.25448 14.1504 9.41076 13.9941C9.56705 13.8378 9.77901 13.75 10 13.75C10.221 13.75 10.433 13.8378 10.5893 13.9941C10.7456 14.1504 10.8334 14.3623 10.8334 14.5833ZM10.625 7.70834C10.625 7.54258 10.5592 7.3836 10.442 7.26639C10.3248 7.14918 10.1658 7.08334 10 7.08334C9.83426 7.08334 9.67529 7.14918 9.55808 7.26639C9.44087 7.3836 9.37502 7.54258 9.37502 7.70834V11.4583C9.37502 11.6241 9.44087 11.7831 9.55808 11.9003C9.67529 12.0175 9.83426 12.0833 10 12.0833C10.1658 12.0833 10.3248 12.0175 10.442 11.9003C10.5592 11.7831 10.625 11.6241 10.625 11.4583V7.70834Z" fill="black"/>
<path id="Vector_2" d="M9.98883 2.29642C10.2563 2.2965 10.5169 2.41475 10.7115 2.65385L10.7906 2.76322L18.4097 16.0943C18.5536 16.5918 18.5479 16.9596 18.3511 17.2271C18.1528 17.4966 17.7497 17.6795 17.0562 17.7769L2.61383 17.69C1.93969 17.5703 1.62671 17.3682 1.5191 17.0845C1.46451 16.9405 1.45931 16.7687 1.49567 16.563C1.53211 16.3571 1.60961 16.1208 1.71344 15.8511L1.71246 15.8501L9.11969 2.76322C9.36412 2.44968 9.68386 2.29639 9.98883 2.29642ZM9.97028 2.57475C9.81741 2.57475 9.66711 2.61594 9.53473 2.69389C9.43549 2.75233 9.34831 2.8294 9.27887 2.92142L9.21539 3.0181L1.85602 16.0503C1.78007 16.1857 1.73965 16.3396 1.73981 16.4956C1.73999 16.6516 1.78082 16.8048 1.85699 16.94C1.93314 17.0751 2.04234 17.1877 2.17438 17.2662C2.2734 17.3249 2.38288 17.3628 2.49567 17.3785L2.60992 17.3872H17.3297C17.4825 17.3867 17.6331 17.3446 17.7652 17.2662C17.8972 17.1877 18.0064 17.075 18.0826 16.94C18.1587 16.8049 18.1995 16.6515 18.1998 16.4956C18.1999 16.3788 18.1775 16.2633 18.1343 16.1558L18.0845 16.0513L10.7242 3.0181C10.6476 2.88355 10.5379 2.77176 10.4058 2.69389C10.2735 2.61599 10.123 2.57479 9.97028 2.57475Z" fill="#111111" stroke="#111111" stroke-width="0.1"/>
</g>
</svg>
