<svg width="20" height="20" viewBox="0 0 20 20" fill="none" xmlns="http://www.w3.org/2000/svg">
<rect width="20" height="20" rx="10" fill="#DBDBDB"/>
<path d="M9.9987 5.33301C10.6175 5.33301 11.211 5.57884 11.6486 6.01643C12.0862 6.45401 12.332 7.0475 12.332 7.66634C12.332 8.28518 12.0862 8.87867 11.6486 9.31626C11.211 9.75384 10.6175 9.99967 9.9987 9.99967C9.37986 9.99967 8.78637 9.75384 8.34878 9.31626C7.9112 8.87867 7.66536 8.28518 7.66536 7.66634C7.66536 7.0475 7.9112 6.45401 8.34878 6.01643C8.78637 5.57884 9.37986 5.33301 9.9987 5.33301ZM9.9987 11.1663C12.577 11.1663 14.6654 12.2105 14.6654 13.4997V14.6663H5.33203V13.4997C5.33203 12.2105 7.42036 11.1663 9.9987 11.1663Z" fill="#8C8C8C"/>
</svg>
