<svg width="24" height="24" viewBox="0 0 24 24" fill="none" xmlns="http://www.w3.org/2000/svg">
<g id="fa6-solid:shield-dog" clip-path="url(#clip0_152_671)">
<path id="Vector" d="M12.3712 0C2.80122 0 -1.29378 11.07 0.356221 14.88C1.58622 17.715 4.28622 15 5.36622 16.38C8.18622 20.07 2.20122 22.095 5.50122 23.4C9.38622 24.99 23.9962 24 23.9962 10.605C23.9962 6.57 21.9862 0 12.3712 0ZM6.70122 13.5C6.25824 13.4911 5.82773 13.3517 5.46369 13.0991C5.09964 12.8466 4.81827 12.4921 4.65485 12.0803C4.49143 11.6685 4.45325 11.2176 4.54508 10.7841C4.63691 10.3507 4.85467 9.95397 5.17106 9.64379C5.48745 9.3336 5.88837 9.12374 6.32356 9.04051C6.75874 8.95727 7.20881 9.00438 7.61733 9.17592C8.02585 9.34746 8.37463 9.6358 8.61993 10.0048C8.86523 10.3737 8.99613 10.8069 8.99622 11.25C8.99622 11.8467 8.75917 12.419 8.33721 12.841C7.91526 13.2629 7.34296 13.5 6.74622 13.5H6.69822H6.70122ZM8.99622 5.25C8.99622 4.80499 9.12818 4.36998 9.37541 3.99997C9.62265 3.62996 9.97405 3.34157 10.3852 3.17127C10.7963 3.00097 11.2487 2.95642 11.6852 3.04323C12.1216 3.13005 12.5225 3.34434 12.8372 3.65901C13.1519 3.97368 13.3662 4.37459 13.453 4.81105C13.5398 5.2475 13.4952 5.6999 13.325 6.11104C13.1547 6.52217 12.8663 6.87357 12.4963 7.12081C12.1262 7.36804 11.6912 7.5 11.2462 7.5H11.1982C10.6098 7.48745 10.0498 7.24486 9.63817 6.82426C9.22654 6.40365 8.99609 5.83851 8.99622 5.25ZM12.7012 21C12.2582 20.9911 11.8277 20.8517 11.4637 20.5991C11.0996 20.3466 10.8183 19.9921 10.6549 19.5803C10.4914 19.1685 10.4532 18.7176 10.5451 18.2841C10.6369 17.8507 10.8547 17.454 11.1711 17.1438C11.4874 16.8336 11.8884 16.6237 12.3236 16.5405C12.7587 16.4573 13.2088 16.5044 13.6173 16.6759C14.0259 16.8475 14.3746 17.1358 14.6199 17.5048C14.8652 17.8737 14.9961 18.3069 14.9962 18.75C14.9962 19.3467 14.7592 19.919 14.3372 20.341C13.9153 20.7629 13.343 21 12.7462 21H12.6982H12.7012ZM18.7012 16.5C18.2582 16.4911 17.8277 16.3517 17.4637 16.0991C17.0996 15.8466 16.8183 15.4921 16.6549 15.0803C16.4914 14.6685 16.4532 14.2176 16.5451 13.7841C16.6369 13.3507 16.8547 12.954 17.1711 12.6438C17.4874 12.3336 17.8884 12.1237 18.3236 12.0405C18.7587 11.9573 19.2088 12.0044 19.6173 12.1759C20.0259 12.3475 20.3746 12.6358 20.6199 13.0048C20.8652 13.3737 20.9961 13.8069 20.9962 14.25C20.9962 14.8467 20.7592 15.419 20.3372 15.841C19.9153 16.2629 19.343 16.5 18.7462 16.5H18.6982H18.7012ZM18.7012 9C18.2582 8.99114 17.8277 8.85168 17.4637 8.59913C17.0996 8.34657 16.8183 7.99215 16.6549 7.58031C16.4914 7.16848 16.4532 6.71756 16.5451 6.28411C16.6369 5.85066 16.8547 5.45397 17.1711 5.14379C17.4874 4.8336 17.8884 4.62374 18.3236 4.54051C18.7587 4.45727 19.2088 4.50438 19.6173 4.67592C20.0259 4.84746 20.3746 5.1358 20.6199 5.50477C20.8652 5.87374 20.9961 6.30693 20.9962 6.75C20.9962 7.34674 20.7592 7.91903 20.3372 8.34099C19.9153 8.76295 19.343 9 18.7462 9H18.6982H18.7012Z" fill="#AFADAD"/>
</g>
<defs>
<clipPath id="clip0_152_671">
<rect width="24" height="24" fill="white"/>
</clipPath>
</defs>
</svg>
