<svg width="35" height="40" viewBox="0 0 35 40" fill="none" xmlns="http://www.w3.org/2000/svg">
<path d="M32.0229 19.9322V8.09769C32.023 7.94824 31.993 7.80025 31.9344 7.66218C31.8758 7.52411 31.7899 7.39867 31.6817 7.29307L25.5779 1.33321C25.3599 1.12012 25.0642 1.00027 24.7558 1H2.16336C1.85482 1 1.55891 1.11968 1.34074 1.33271C1.12257 1.54574 1 1.83466 1 2.13593V37.7285C1 38.0298 1.12257 38.3187 1.34074 38.5317C1.55891 38.7448 1.85482 38.8644 2.16336 38.8644H14.5725M8.75573 16.1458H24.2672M8.75573 8.57289H16.5115M8.75573 23.7187H14.5725M28.0559 29.2847L29.9948 27.3915C30.1965 27.194 30.4362 27.0373 30.7 26.9304C30.9638 26.8235 31.2467 26.7685 31.5324 26.7685C31.818 26.7685 32.1009 26.8235 32.3647 26.9304C32.6286 27.0373 32.8682 27.194 33.0699 27.3915C33.2719 27.5884 33.4321 27.8223 33.5414 28.0798C33.6508 28.3372 33.707 28.6132 33.707 28.8919C33.707 29.1706 33.6508 29.4465 33.5414 29.704C33.4321 29.9614 33.2719 30.1953 33.0699 30.3923L31.131 32.2855L28.0559 29.2828L22.2565 34.9455C21.9665 35.2295 21.7764 35.5961 21.7136 35.9924L21.2405 38.9402L24.2594 38.4801C24.6653 38.4188 25.0408 38.2331 25.3317 37.95L31.1291 32.2855" stroke="#F29B30" stroke-width="1.5" stroke-linecap="round" stroke-linejoin="round"/>
<path d="M24.2695 1V7.43695C24.2695 7.73822 24.3921 8.02715 24.6103 8.24018C24.8284 8.45321 25.1243 8.57289 25.4329 8.57289H32.0253" stroke="#F29B30" stroke-width="1.5" stroke-linecap="round" stroke-linejoin="round"/>
</svg>
