<svg width="60" height="28" viewBox="0 0 60 28" fill="none" xmlns="http://www.w3.org/2000/svg">
<rect width="60" height="28" rx="6" fill="#111111"/>
<path d="M19.5 6H16.5V4.5C16.5 4.36739 16.4473 4.24021 16.3536 4.14645C16.2598 4.05268 16.1326 4 16 4C15.8674 4 15.7402 4.05268 15.6464 4.14645C15.5527 4.24021 15.5 4.36739 15.5 4.5V6H8.5V4.5C8.5 4.36739 8.44732 4.24021 8.35355 4.14645C8.25979 4.05268 8.13261 4 8 4C7.86739 4 7.74021 4.05268 7.64645 4.14645C7.55268 4.24021 7.5 4.36739 7.5 4.5V6H4.5C3.8372 6.00079 3.20178 6.26444 2.73311 6.73311C2.26444 7.20178 2.00079 7.8372 2 8.5V21.5C2.00079 22.1628 2.26444 22.7982 2.73311 23.2669C3.20178 23.7356 3.8372 23.9992 4.5 24H19.5C20.163 24 20.7989 23.7366 21.2678 23.2678C21.7366 22.7989 22 22.163 22 21.5V8.5C22 7.83696 21.7366 7.20107 21.2678 6.73223C20.7989 6.26339 20.163 6 19.5 6ZM21 21.5C21 21.8978 20.842 22.2794 20.5607 22.5607C20.2794 22.842 19.8978 23 19.5 23H4.5C4.10218 23 3.72064 22.842 3.43934 22.5607C3.15804 22.2794 3 21.8978 3 21.5V13H21V21.5ZM21 12H3V8.5C3 7.672 3.67 7 4.5 7H7.5V8.5C7.5 8.63261 7.55268 8.75979 7.64645 8.85355C7.74021 8.94732 7.86739 9 8 9C8.13261 9 8.25979 8.94732 8.35355 8.85355C8.44732 8.75979 8.5 8.63261 8.5 8.5V7H15.5V8.5C15.5 8.63261 15.5527 8.75979 15.6464 8.85355C15.7402 8.94732 15.8674 9 16 9C16.1326 9 16.2598 8.94732 16.3536 8.85355C16.4473 8.75979 16.5 8.63261 16.5 8.5V7H19.5C19.8978 7 20.2794 7.15804 20.5607 7.43934C20.842 7.72064 21 8.10218 21 8.5V12Z" fill="white"/>
<path d="M44.4688 6.875V20.7656H43.2812V6.875H44.4688ZM41.7031 7.17188V20.0625H40.5312V15.5H38.3125C37.8281 16.8906 36.9062 17.7031 35.7188 17.7031C33.9062 17.7031 32.7344 15.8281 32.7344 12.875C32.7344 9.92188 33.9062 8.04688 35.7188 8.04688C36.9062 8.04688 37.8281 8.85938 38.3125 10.25H40.5312V7.17188H41.7031ZM35.7188 9.20312C34.5781 9.20312 33.875 10.6094 33.875 12.875C33.875 15.125 34.5781 16.5469 35.7188 16.5312C36.8438 16.5469 37.5781 15.125 37.5781 12.875C37.5781 10.6094 36.8438 9.20312 35.7188 9.20312ZM38.5781 11.2656C38.6719 11.7578 38.7188 12.2969 38.7188 12.875C38.7188 13.4453 38.6719 13.9844 38.5938 14.4688H40.5312V11.2656H38.5781ZM59.3125 9.03125V10.0312H57.25V11.9844H59.3125V13.0312H57.25V15.1406H56.0312V6.875H57.25V9.03125H59.3125ZM57.25 15.7812V20.7656H56.0312V16.7969H48.1562V15.7812H57.25ZM50.2969 7.71875C52.4062 7.70312 53.9375 9.0625 53.9531 10.9844C53.9375 12.9375 52.4062 14.2812 50.2969 14.2812C48.1875 14.2812 46.6406 12.9375 46.6562 10.9844C46.6406 9.0625 48.1875 7.70312 50.2969 7.71875ZM50.2969 8.76562C48.8906 8.76562 47.8438 9.67188 47.8594 10.9844C47.8438 12.3125 48.8906 13.2344 50.2969 13.2188C51.7188 13.2344 52.75 12.3125 52.75 10.9844C52.75 9.67188 51.7188 8.76562 50.2969 8.76562Z" fill="white"/>
</svg>
