<svg width="18" height="18" viewBox="0 0 18 18" fill="none" xmlns="http://www.w3.org/2000/svg">
<path d="M17.3316 0.67008C17.1424 0.482247 16.9051 0.350201 16.6458 0.288455C16.3865 0.226708 16.1151 0.237651 15.8616 0.32008L1.23159 5.20008C0.96026 5.28606 0.720495 5.45051 0.542576 5.67267C0.364658 5.89484 0.256567 6.16474 0.231957 6.4483C0.207346 6.73186 0.267319 7.01635 0.404301 7.26585C0.541283 7.51534 0.74913 7.71864 1.00159 7.85008L7.07159 10.8501L10.0716 16.9401C10.1922 17.1785 10.3767 17.3786 10.6045 17.5181C10.8323 17.6576 11.0944 17.731 11.3616 17.7301H11.4616C11.7477 17.709 12.0208 17.6024 12.2455 17.424C12.4702 17.2457 12.6361 17.0039 12.7216 16.7301L17.6716 2.14008C17.76 1.88801 17.7749 1.61602 17.7148 1.35578C17.6546 1.09553 17.5217 0.857737 17.3316 0.67008ZM1.85159 6.58008L14.6216 2.32008L7.53159 9.41008L1.85159 6.58008ZM11.4316 16.1501L8.59159 10.4701L15.6816 3.38008L11.4316 16.1501Z" fill="#8C8C8C"/>
</svg>
