<svg width="24" height="24" viewBox="0 0 24 24" fill="none" xmlns="http://www.w3.org/2000/svg">
<g id="fa6-solid:shield-dog" clip-path="url(#clip0_152_676)">
<path id="Vector" d="M12.6281 0.135938C12.4313 0.046875 12.2203 0 12 0C11.7797 0 11.5688 0.046875 11.3719 0.135938L2.54533 3.88125C1.51408 4.31719 0.745334 5.33438 0.750021 6.5625C0.773459 11.2125 2.68596 19.7203 10.7625 23.5875C11.5453 23.9625 12.4547 23.9625 13.2375 23.5875C21.3141 19.7203 23.2266 11.2125 23.25 6.5625C23.2547 5.33438 22.486 4.31719 21.4547 3.88125L12.6281 0.135938ZM7.54221 13.4156C7.76721 13.4719 8.00627 13.5 8.25002 13.5C9.90471 13.5 11.25 12.1547 11.25 10.5V7.5H13.3219C13.8891 7.5 14.4094 7.81875 14.6625 8.32969L15 9H18C18.4125 9 18.75 9.3375 18.75 9.75V11.25C18.75 13.3219 17.0719 15 15 15H12.75V17.3766C12.75 17.7188 12.4735 18 12.1266 18C12.0422 18 11.9578 17.9813 11.8828 17.9484L7.25627 15.9656C6.9469 15.8344 6.75002 15.5297 6.75002 15.1969C6.75002 15.0656 6.77815 14.9391 6.83908 14.8219L7.54221 13.4156ZM7.50002 7.5H9.75002V10.5C9.75002 11.3297 9.07971 12 8.25002 12C7.42033 12 6.75002 11.3297 6.75002 10.5V8.25C6.75002 7.8375 7.08752 7.5 7.50002 7.5ZM13.5 9.75C13.5 9.55109 13.421 9.36032 13.2804 9.21967C13.1397 9.07902 12.9489 9 12.75 9C12.5511 9 12.3603 9.07902 12.2197 9.21967C12.079 9.36032 12 9.55109 12 9.75C12 9.94891 12.079 10.1397 12.2197 10.2803C12.3603 10.421 12.5511 10.5 12.75 10.5C12.9489 10.5 13.1397 10.421 13.2804 10.2803C13.421 10.1397 13.5 9.94891 13.5 9.75Z" fill="#AFADAD"/>
</g>
<defs>
<clipPath id="clip0_152_676">
<rect width="24" height="24" fill="white"/>
</clipPath>
</defs>
</svg>
