<svg width="25" height="26" viewBox="0 0 25 26" fill="none" xmlns="http://www.w3.org/2000/svg">
<path d="M13.7258 0.148075C13.4983 0.0510605 13.2546 0 13 0C12.7454 0 12.5017 0.0510605 12.2742 0.148075L2.0746 4.22781C0.882939 4.70267 -0.00539202 5.81068 2.46376e-05 7.14847C0.0271079 12.2137 2.23711 21.4811 11.57 25.6936C12.4746 26.1021 13.5254 26.1021 14.43 25.6936C23.7629 21.4811 25.9729 12.2137 26 7.14847C26.0054 5.81068 25.1171 4.70267 23.9254 4.22781L13.7258 0.148075ZM7.84876 14.6135C8.10876 14.6748 8.38501 14.7054 8.66668 14.7054C10.5788 14.7054 12.1333 13.24 12.1333 11.4376V8.16968H14.5275C15.1829 8.16968 15.7842 8.51689 16.0767 9.07345L16.4667 9.80361H19.9333C20.41 9.80361 20.8 10.1712 20.8 10.6206V12.2545C20.8 14.5114 18.8608 16.3394 16.4667 16.3394H13.8667V18.9281C13.8667 19.3009 13.5471 19.6072 13.1462 19.6072C13.0488 19.6072 12.9512 19.5868 12.8646 19.5511L7.51834 17.3912C7.16085 17.2482 6.93334 16.9163 6.93334 16.5538C6.93334 16.4108 6.96584 16.273 7.03626 16.1453L7.84876 14.6135ZM7.80001 8.16968H10.4V11.4376C10.4 12.3413 9.62542 13.0715 8.66668 13.0715C7.70793 13.0715 6.93334 12.3413 6.93334 11.4376V8.98665C6.93334 8.53731 7.32334 8.16968 7.80001 8.16968ZM14.7333 10.6206C14.7333 10.4039 14.642 10.1961 14.4795 10.0429C14.317 9.88969 14.0965 9.80361 13.8667 9.80361C13.6368 9.80361 13.4164 9.88969 13.2538 10.0429C13.0913 10.1961 13 10.4039 13 10.6206C13 10.8373 13.0913 11.0451 13.2538 11.1983C13.4164 11.3515 13.6368 11.4376 13.8667 11.4376C14.0965 11.4376 14.317 11.3515 14.4795 11.1983C14.642 11.0451 14.7333 10.8373 14.7333 10.6206Z" fill="#CACED8"/>
</svg>
