<svg width="20" height="20" viewBox="0 0 20 20" fill="none" xmlns="http://www.w3.org/2000/svg">
<g id="famicons:camera-sharp">
<path id="Vector" d="M10 8.625C11.1046 8.625 12 9.52043 12 10.625C12 11.7296 11.1046 12.625 10 12.625C8.89543 12.625 8 11.7296 8 10.625C8 9.52043 8.89543 8.625 10 8.625Z" fill="white" stroke="black"/>
<path id="Vector_2" d="M8.20312 3.625H11.7969C12.1853 3.625 12.2945 3.63346 12.373 3.66602C12.4219 3.68634 12.5083 3.73885 12.708 4.02832L13.7725 5.69824L13.7988 5.73926L13.832 5.77344C13.9999 5.95052 14.2671 6.125 14.5703 6.125H17.8125C17.9285 6.125 18.04 6.17088 18.1221 6.25293C18.2041 6.33498 18.25 6.44647 18.25 6.5625V15.9375C18.25 16.0535 18.2041 16.165 18.1221 16.2471C18.04 16.3291 17.9285 16.375 17.8125 16.375H2.1875C2.07147 16.375 1.95998 16.3291 1.87793 16.2471C1.79588 16.165 1.75 16.0535 1.75 15.9375V6.5625L1.75879 6.47656C1.77563 6.39256 1.81645 6.31441 1.87793 6.25293C1.93941 6.19145 2.01756 6.15063 2.10156 6.13379L2.1875 6.125H3.78125V5.1875H4.96875V6.125H5.46875C5.66323 6.125 5.82024 6.04931 5.92383 5.98242C6.02959 5.91411 6.11418 5.8326 6.17383 5.76758L6.20312 5.73535L6.22656 5.69824L7.29395 4.02734L7.29688 4.02246C7.47552 3.73489 7.56234 3.687 7.60938 3.66797C7.69471 3.63351 7.8157 3.625 8.20312 3.625ZM11.7188 6.73828C10.9344 6.3916 10.0627 6.28984 9.21973 6.44727C8.37684 6.60473 7.60144 7.01379 6.99512 7.62012C6.38879 8.22644 5.97973 9.00184 5.82227 9.84473C5.66484 10.6877 5.7666 11.5594 6.11328 12.3438C6.45998 13.1279 7.03543 13.7893 7.76465 14.2402C8.40282 14.6349 9.13264 14.8517 9.87891 14.873L10.1992 14.8701H10.2002C11.2567 14.8194 12.256 14.3768 13.0039 13.6289C13.7051 12.9277 14.1383 12.0056 14.2314 11.0225L14.2451 10.8252V10.8242C14.2853 9.96773 14.0662 9.1189 13.6152 8.38965C13.1643 7.66043 12.5029 7.08498 11.7188 6.73828Z" fill="white" stroke="#111111"/>
</g>
</svg>
