<svg width="20" height="18" viewBox="0 0 20 18" fill="none" xmlns="http://www.w3.org/2000/svg">
<g id="ph:camera-thin">
<path id="Vector" d="M16.25 4.21875H13.9164L12.7594 2.65641C12.7309 2.61798 12.6923 2.58646 12.6471 2.56463C12.6018 2.5428 12.5513 2.53134 12.5 2.53125H7.5C7.44867 2.53134 7.39815 2.5428 7.35292 2.56463C7.30768 2.58646 7.26911 2.61798 7.24063 2.65641L6.08203 4.21875H3.75C3.3356 4.21875 2.93817 4.36691 2.64515 4.63063C2.35212 4.89435 2.1875 5.25204 2.1875 5.625V13.5C2.1875 13.873 2.35212 14.2306 2.64515 14.4944C2.93817 14.7581 3.3356 14.9062 3.75 14.9062H16.25C16.6644 14.9063 17.0618 14.7581 17.3549 14.4944C17.6479 14.2306 17.8125 13.873 17.8125 13.5V5.625C17.8125 5.25204 17.6479 4.89435 17.3549 4.63063C17.0618 4.36691 16.6644 4.21875 16.25 4.21875ZM17.1875 13.5C17.1875 13.7238 17.0887 13.9384 16.9129 14.0966C16.7371 14.2549 16.4986 14.3438 16.25 14.3438H3.75C3.50136 14.3438 3.2629 14.2549 3.08709 14.0966C2.91127 13.9384 2.8125 13.7238 2.8125 13.5V5.625C2.8125 5.40122 2.91127 5.18661 3.08709 5.02838C3.2629 4.87014 3.50136 4.78125 3.75 4.78125H6.25C6.30146 4.78128 6.35214 4.76987 6.39752 4.74804C6.4429 4.7262 6.4816 4.69462 6.51016 4.65609L7.66641 3.09375H12.332L13.4898 4.65609C13.5184 4.69462 13.5571 4.7262 13.6025 4.74804C13.6479 4.76987 13.6985 4.78128 13.75 4.78125H16.25C16.4986 4.78125 16.7371 4.87014 16.9129 5.02838C17.0887 5.18661 17.1875 5.40122 17.1875 5.625V13.5ZM10 6.46875C9.38193 6.46875 8.77775 6.6337 8.26384 6.94274C7.74994 7.25178 7.3494 7.69104 7.11288 8.20495C6.87635 8.71887 6.81447 9.28437 6.93505 9.82994C7.05562 10.3755 7.35325 10.8767 7.79029 11.27C8.22733 11.6633 8.78415 11.9312 9.39034 12.0397C9.99653 12.1482 10.6249 12.0925 11.1959 11.8797C11.7669 11.6668 12.255 11.3063 12.5983 10.8438C12.9417 10.3813 13.125 9.83751 13.125 9.28125C13.125 8.53533 12.7958 7.81996 12.2097 7.29251C11.6237 6.76507 10.8288 6.46875 10 6.46875ZM10 11.5312C9.50555 11.5312 9.0222 11.3993 8.61107 11.1521C8.19995 10.9048 7.87952 10.5534 7.6903 10.1423C7.50108 9.73115 7.45157 9.27875 7.54804 8.8423C7.6445 8.40584 7.8826 8.00493 8.23223 7.69026C8.58186 7.37559 9.02732 7.1613 9.51227 7.07448C9.99723 6.98767 10.4999 7.03222 10.9567 7.20252C11.4135 7.37282 11.804 7.66121 12.0787 8.03122C12.3534 8.40123 12.5 8.83624 12.5 9.28125C12.5 9.87799 12.2366 10.4503 11.7678 10.8722C11.2989 11.2942 10.663 11.5312 10 11.5312Z" fill="black"/>
</g>
</svg>
