<svg width="12" height="12" viewBox="0 0 12 12" fill="none" xmlns="http://www.w3.org/2000/svg">
<path d="M5.9997 10.053L3.09127 11.8875C2.96278 11.9731 2.82845 12.0098 2.68829 11.9975C2.54812 11.9853 2.42548 11.9364 2.32035 11.8508C2.21523 11.7652 2.13347 11.6583 2.07506 11.5301C2.01666 11.4019 2.00498 11.2581 2.04002 11.0986L2.81093 7.63147L0.235391 5.30167C0.118587 5.1916 0.0457004 5.06612 0.0167328 4.92523C-0.0122347 4.78434 -0.00359123 4.64688 0.0426634 4.51284C0.0889181 4.3788 0.159001 4.26873 0.252912 4.18263C0.346823 4.09653 0.475308 4.0415 0.638367 4.01753L4.03738 3.70566L5.35144 0.440277C5.40984 0.293518 5.50048 0.183449 5.62336 0.110069C5.74624 0.0366896 5.87168 0 5.9997 0C6.12772 0 6.25317 0.0366896 6.37605 0.110069C6.49892 0.183449 6.58957 0.293518 6.64797 0.440277L7.96202 3.70566L11.361 4.01753C11.5246 4.04199 11.653 4.09702 11.7465 4.18263C11.8399 4.26824 11.91 4.37831 11.9567 4.51284C12.0035 4.64737 12.0123 4.78508 11.9834 4.92596C11.9544 5.06685 11.8813 5.19209 11.764 5.30167L9.18847 7.63147L9.95938 11.0986C9.99442 11.2576 9.98274 11.4015 9.92434 11.5301C9.86594 11.6588 9.78417 11.7657 9.67905 11.8508C9.57393 11.9359 9.45128 11.9848 9.31111 11.9975C9.17095 12.0103 9.03662 11.9736 8.90814 11.8875L5.9997 10.053Z" fill="#FFE867"/>
</svg>
