<svg width="49" height="51" viewBox="0 0 49 51" fill="none" xmlns="http://www.w3.org/2000/svg">
<path d="M17.9375 27.2299C16.1424 28.0869 14.0804 28.1957 12.2052 27.5323C10.3299 26.869 8.79497 25.4879 7.93801 23.6929L5.35305 18.2782C5.18166 17.9192 5.1599 17.5068 5.29257 17.1318C5.42523 16.7567 5.70146 16.4497 6.06047 16.2784L7.41412 15.6321C7.77313 15.4607 8.04935 15.1537 8.18202 14.7787C8.31468 14.4036 8.29293 13.9912 8.12153 13.6322C7.95014 13.2732 7.64315 12.997 7.2681 12.8643C6.89304 12.7317 6.48065 12.7534 6.12164 12.9248L4.76799 13.571C3.69096 14.0852 2.86229 15.0062 2.4643 16.1314C2.0663 17.2565 2.13157 18.4937 2.64575 19.5707L5.2307 24.9853C5.96252 26.5138 7.0544 27.8417 8.41257 28.8552C9.77074 29.8686 11.3546 30.5373 13.0281 30.8037C14.7481 31.2911 16.351 32.1229 17.7398 33.2485C19.1287 34.3741 20.2744 35.7701 21.1075 37.3517C22.3072 39.8648 24.4562 41.7984 27.0815 42.727C29.7069 43.6557 32.5936 43.5034 35.1067 42.3036C37.6198 41.1039 39.5533 38.9549 40.482 36.3296C41.4107 33.7042 41.2584 30.8175 40.0586 28.3044L39.3219 26.7612C40.4407 25.8226 41.1787 24.5081 41.3976 23.0643C41.6165 21.6204 41.3013 20.1463 40.5111 18.9182C39.7209 17.6901 38.5099 16.7923 37.1052 16.3932C35.7004 15.9941 34.1983 16.121 32.8804 16.7502C31.5625 17.3793 30.5194 18.4675 29.9464 19.8108C29.3735 21.1541 29.3101 22.6602 29.7682 24.0469C30.2263 25.4335 31.1744 26.6055 32.4348 27.3431C33.6951 28.0808 35.1813 28.3334 36.6146 28.0537L37.3513 29.5969C38.2083 31.3919 38.3171 33.4539 37.6537 35.3291C36.9904 37.2044 35.6093 38.7394 33.8142 39.5963C32.0192 40.4533 29.9572 40.5621 28.082 39.8987C26.2067 39.2354 24.6718 37.8543 23.8148 36.0593C23.1112 34.4133 22.7498 32.6414 22.7524 30.8514C22.7551 29.0613 23.1218 27.2905 23.8303 25.6467C24.669 24.1772 25.1391 22.5264 25.2003 20.8356C25.2615 19.1447 24.9121 17.4642 24.1818 15.938L21.5969 10.5234C21.0827 9.44635 20.1617 8.61768 19.0366 8.21969C17.9114 7.82169 16.6742 7.88696 15.5972 8.40114L14.2436 9.04738C13.8845 9.21877 13.6083 9.52576 13.4757 9.90081C13.343 10.2759 13.3647 10.6883 13.5361 11.0473C13.7075 11.4063 14.0145 11.6825 14.3896 11.8152C14.7646 11.9478 15.177 11.9261 15.536 11.7547L16.8897 11.1084C17.2487 10.937 17.6611 10.9153 18.0361 11.048C18.4112 11.1806 18.7182 11.4568 18.8896 11.8159L21.4745 17.2305C21.8989 18.1193 22.144 19.083 22.1959 20.0665C22.2477 21.0501 22.1054 22.0342 21.777 22.9627C21.4485 23.8913 20.9404 24.746 20.2816 25.4782C19.6228 26.2104 18.8263 26.8056 17.9375 27.2299ZM36.7663 24.8897C36.0482 25.2325 35.2234 25.276 34.4733 25.0106C33.7232 24.7453 33.1093 24.1929 32.7665 23.4748C32.4237 22.7568 32.3802 21.932 32.6455 21.1819C32.9108 20.4318 33.4633 19.8178 34.1813 19.4751C34.8993 19.1323 35.7241 19.0888 36.4742 19.3541C37.2243 19.6194 37.8383 20.1719 38.1811 20.8899C38.5239 21.6079 38.5674 22.4327 38.302 23.1828C38.0367 23.9329 37.4843 24.5469 36.7663 24.8897Z" fill="#F29B30" fill-opacity="0.7"/>
</svg>
