<svg width="28" height="27" viewBox="0 0 28 27" fill="none" xmlns="http://www.w3.org/2000/svg">
<g clip-path="url(#clip0_1222_3798)">
<path d="M21.875 4.5H20.75V2.25H18.5V4.5H9.5V2.25H7.25V4.5H6.125C4.87625 4.5 3.88625 5.5125 3.88625 6.75L3.875 22.5C3.875 23.7375 4.87625 24.75 6.125 24.75H21.875C23.1125 24.75 24.125 23.7375 24.125 22.5V6.75C24.125 5.5125 23.1125 4.5 21.875 4.5ZM21.875 22.5H6.125V11.25H21.875V22.5ZM10.625 15.75H8.375V13.5H10.625V15.75ZM15.125 15.75H12.875V13.5H15.125V15.75ZM19.625 15.75H17.375V13.5H19.625V15.75ZM10.625 20.25H8.375V18H10.625V20.25ZM15.125 20.25H12.875V18H15.125V20.25ZM19.625 20.25H17.375V18H19.625V20.25Z" fill="#111111"/>
</g>
<defs>
<clipPath id="clip0_1222_3798">
<rect width="27" height="27" fill="white" transform="translate(0.5)"/>
</clipPath>
</defs>
</svg>
