<svg width="20" height="20" viewBox="0 0 20 20" fill="none" xmlns="http://www.w3.org/2000/svg">
<g id="mdi:user">
<rect width="20" height="20" rx="10" fill="#DBDBDB"/>
<path id="Vector" d="M10 5.3335C10.6189 5.3335 11.2124 5.57933 11.65 6.01691C12.0875 6.4545 12.3334 7.04799 12.3334 7.66683C12.3334 8.28567 12.0875 8.87916 11.65 9.31675C11.2124 9.75433 10.6189 10.0002 10 10.0002C9.3812 10.0002 8.78771 9.75433 8.35013 9.31675C7.91254 8.87916 7.66671 8.28567 7.66671 7.66683C7.66671 7.04799 7.91254 6.4545 8.35013 6.01691C8.78771 5.57933 9.3812 5.3335 10 5.3335ZM10 11.1668C12.5784 11.1668 14.6667 12.211 14.6667 13.5002V14.6668H5.33337V13.5002C5.33337 12.211 7.42171 11.1668 10 11.1668Z" fill="#AFADAD"/>
</g>
</svg>
