<svg width="77" height="71" viewBox="0 0 77 71" fill="none" xmlns="http://www.w3.org/2000/svg">
<path d="M55.8252 2.67627C66.3053 2.67637 74.4999 10.8384 74.5 21.3511C74.5 27.7863 71.62 33.8389 66.041 40.6646C61.1352 46.6665 54.3451 53.0304 46.0498 60.5796L42.4033 63.8901L42.3994 63.8931L38.5 67.4429L34.6006 63.8931L34.5967 63.8901L30.9512 60.5796C22.6557 53.0301 15.8649 46.6666 10.959 40.6646C5.37996 33.8389 2.5 27.7863 2.5 21.3511C2.5001 10.8384 10.6947 2.67637 21.1748 2.67627C27.1178 2.67627 32.8634 5.45571 36.6025 9.81201L38.5 12.0229L40.3975 9.81201C44.1366 5.45571 49.8822 2.67627 55.8252 2.67627Z" fill="white" stroke="black" stroke-width="5"/>
</svg>
