<svg width="77" height="71" viewBox="0 0 77 71" fill="none" xmlns="http://www.w3.org/2000/svg">
<path d="M55.8252 2.17578C66.5809 2.17588 74.9999 10.5612 75 21.3506C75 27.9503 72.0412 34.1127 66.4277 40.9805C61.4967 47.0133 54.679 53.4021 46.3838 60.9512L42.7393 64.2598L42.7363 64.2627L38.5 68.1182L34.2637 64.2627L34.2607 64.2598L30.6162 60.9512C22.321 53.4021 15.5033 47.0133 10.5723 40.9805C4.95879 34.1127 2 27.9503 2 21.3506C2.0001 10.5612 10.4191 2.17588 21.1748 2.17578C27.2692 2.17578 33.1518 5.02318 36.9824 9.48633L38.5 11.2549L40.0176 9.48633C43.8482 5.02318 49.7308 2.17578 55.8252 2.17578Z" fill="white" stroke="black" stroke-width="4"/>
</svg>
