<svg width="78" height="68" viewBox="0 0 78 68" fill="none" xmlns="http://www.w3.org/2000/svg">
<path d="M38.9985 50.7166H39.0316M38.9985 25.9075V38.312M33.1063 6.13045L3.92252 54.8514C3.32123 55.8936 3.00319 57.0749 3.00002 58.2781C2.99686 59.4813 3.30868 60.6643 3.90449 61.7096C4.5003 62.7548 5.35934 63.626 6.39619 64.2363C7.43305 64.8466 8.61161 65.175 9.81469 65.1886H68.1823C69.3859 65.1762 70.5652 64.8486 71.6028 64.2386C72.6404 63.6285 73.5 62.7573 74.096 61.7116C74.6921 60.6659 75.0037 59.4823 75 58.2786C74.9962 57.075 74.6771 55.8934 74.0745 54.8514L44.8948 6.13045C44.2811 5.11711 43.4163 4.2792 42.3842 3.69764C41.352 3.11608 40.1874 2.81055 39.0026 2.81055C37.8179 2.81055 36.6532 3.11608 35.6211 3.69764C34.5889 4.2792 33.7242 5.11711 33.1105 6.13045" stroke="#111111" stroke-width="5" stroke-miterlimit="10" stroke-linecap="round" stroke-linejoin="round"/>
</svg>
